<svg width="20" height="20" viewBox="0 0 20 20" fill="none" xmlns="http://www.w3.org/2000/svg">
<path d="M18 0.75H2C1.30964 0.75 0.75 1.30964 0.75 2V2.25C0.75 2.94036 1.30964 3.5 2 3.5H18C18.6904 3.5 19.25 2.94036 19.25 2.25V2C19.25 1.30964 18.6904 0.75 18 0.75ZM18 8.625H8C7.30964 8.625 6.75 9.18464 6.75 9.875V10.125C6.75 10.8154 7.30964 11.375 8 11.375H18C18.6904 11.375 19.25 10.8154 19.25 10.125V9.875C19.25 9.18464 18.6904 8.625 18 8.625ZM18 16.5H2C1.30964 16.5 0.75 17.0596 0.75 17.75V18C0.75 18.6904 1.30964 19.25 2 19.25H18C18.6904 19.25 19.25 18.6904 19.25 18V17.75C19.25 17.0596 18.6904 16.5 18 16.5Z" fill="white" stroke="white" stroke-width="0.5"/>
</svg>
