<svg width="334" height="315" viewBox="0 0 334 315" fill="none" xmlns="http://www.w3.org/2000/svg">
<mask id="mask0_290_290" style="mask-type:alpha" maskUnits="userSpaceOnUse" x="0" y="0" width="334" height="315">
<rect width="334" height="315" fill="#D9D9D9"/>
</mask>
<g mask="url(#mask0_290_290)">
<path d="M66.4832 38.1759H67.9808L66.7827 37.5768L66.4832 38.1759ZM70.3769 36.3787C70.3769 36.6782 70.3769 36.6782 70.6764 36.6782L71.8745 35.7796C71.2754 35.4801 70.9759 35.4801 70.3769 36.3787ZM58.6959 44.4662L59.5944 43.8671C59.8939 43.5676 59.8939 43.268 59.8939 43.268H59.2949L58.6959 44.4662C58.3964 44.4662 58.3964 44.1667 58.6959 44.4662ZM65.2852 35.7796H64.9857L64.3866 36.3787H65.2852V35.7796ZM58.9954 42.9685L60.7925 41.4708C61.092 41.1713 61.092 40.8717 61.092 40.5722H60.1934L56.5993 43.8671L56.0002 45.0653L58.0968 43.268L58.9954 42.9685Z" fill="url(#paint0_linear_290_290)"/>
<path d="M36.2325 67.2309V66.6319C36.348 65.9717 36.5926 65.3408 36.9524 64.7754C37.3122 64.21 37.78 63.7212 38.3291 63.337L41.0247 61.5397L42.5223 59.7425L44.6189 57.6458L45.8169 56.4476L47.015 55.549C48.0848 54.934 48.9258 53.9878 49.4111 52.8532L50.6092 51.3555C51.7839 50.2033 52.7921 48.8926 53.6043 47.4615L54.2033 46.5629L55.1019 45.9638L54.5028 45.0652L55.7009 43.5675C58.097 41.7703 59.8941 39.374 62.2902 37.5768L63.1887 36.6781C63.5073 35.9491 64.0267 35.3258 64.6863 34.8809L67.0824 33.6828H68.2805C69.1622 33.3376 69.9011 32.7042 70.3771 31.8856V31.2865C71.261 29.5546 72.6091 28.1026 74.2707 27.093L76.6668 25.5953L77.2659 24.9962L78.4639 23.798L81.4591 22.3004H82.0581L78.7634 23.4985L74.5702 26.4939C72.7732 27.9916 70.3771 28.2911 69.179 30.6874H70.0775C67.9809 31.2865 65.8843 32.1851 64.9858 34.2818C64.0873 36.3786 62.5897 36.0791 61.3916 36.9777C61.128 37.0456 60.8954 37.2013 60.7321 37.4191C60.5688 37.6368 60.4845 37.9037 60.4931 38.1758C58.097 37.8763 57.1984 39.6735 56.0004 40.8717V43.268C54.0455 44.195 52.3864 45.6468 51.2082 47.4615C46.416 47.761 46.416 53.7518 42.2228 54.9499H41.9233C41.8707 55.041 41.843 55.1443 41.843 55.2495C41.843 55.3546 41.8707 55.4579 41.9233 55.549C41.0247 55.549 40.4257 56.1481 40.7252 57.0467L40.1262 58.5444C38.0296 59.7425 38.3291 61.8393 37.131 63.6365C34.7349 65.1342 33.8364 68.1296 32.0393 70.2263L32.9378 71.724L33.5369 71.1249C34.3458 69.7671 35.2464 68.4661 36.2325 67.2309ZM168.618 2.23136L170.415 2.83044H171.014C172.307 3.48621 173.781 3.69679 175.207 3.42951C177.101 3.08171 179.05 3.18432 180.898 3.72905H184.492C185.12 3.59351 185.77 3.60405 186.393 3.75986C187.017 3.91566 187.596 4.21257 188.086 4.62766C188.112 4.6732 188.126 4.72485 188.126 4.77743C188.126 4.83001 188.112 4.88166 188.086 4.9272H186.888C186.862 4.97273 186.848 5.02439 186.848 5.07697C186.848 5.12955 186.862 5.1812 186.888 5.22674H188.984C190.237 4.74165 191.626 4.74165 192.878 5.22674C193.477 5.22674 193.178 5.52627 193.477 5.82581L194.975 6.42488H194.376C193.777 5.22674 192.878 5.22674 191.98 5.22674C187.949 3.35491 183.543 2.43265 179.101 2.5309H176.704C173.216 1.46495 169.559 1.05863 165.922 1.33275H166.521L168.618 2.23136ZM212.946 13.0147C213.326 13.4058 213.815 13.6725 214.35 13.7794C214.885 13.8864 215.439 13.8286 215.941 13.6138H217.738C216.21 12.3586 214.321 11.624 212.347 11.517L210.25 10.9179L211.747 11.8166L212.946 13.0147ZM202.762 9.12072C202.762 9.42026 203.062 9.7198 203.361 10.0193H203.96L205.458 9.12072C203.911 8.16013 202.173 7.54693 200.366 7.3235L202.463 8.52165L202.762 9.12072ZM224.926 17.2082L227.322 18.7059C226.723 17.8073 226.124 17.2082 224.926 17.2082Z" fill="url(#paint1_linear_290_290)"/>
<path d="M303.698 220.295L305.495 215.502L307.292 211.009C307.891 209.511 309.089 205.617 309.688 203.221C309.825 202.463 310.133 201.746 310.587 201.124H310.886V197.829C312.384 197.53 312.084 196.032 312.384 195.133L314.78 181.055C316.314 174.96 316.314 168.579 314.78 162.484C314.914 161.624 314.848 160.744 314.588 159.913C314.329 159.083 313.882 158.322 313.282 157.691V144.811C312.384 142.115 314.181 139.12 312.084 136.724L309.688 127.138C309.739 126.942 309.739 126.736 309.688 126.539L309.089 124.742C309.007 124.553 308.964 124.349 308.964 124.143C308.964 123.937 309.007 123.733 309.089 123.544H309.389C310.287 123.544 310.287 122.046 310.287 120.848C310.108 119.682 309.701 118.562 309.089 117.553L308.191 116.355C307.759 115.744 307.548 115.005 307.592 114.258C307.694 112.243 307.492 110.223 306.993 108.268V106.47C306.394 104.374 305.795 101.977 305.196 99.8806L304.597 98.3829C303.942 97.3949 303.532 96.2656 303.399 95.088C303.239 94.2436 302.935 93.433 302.5 92.6917L300.703 89.6963C300.46 89.4796 300.175 89.3146 299.866 89.2116C299.557 89.1086 299.23 89.0697 298.906 89.0972H298.606V88.1986H298.007V85.8023H297.708V85.2033C297.72 85.1038 297.72 85.0032 297.708 84.9037V84.3047C298.007 83.7056 298.007 83.406 297.408 82.807C296.892 82.2948 296.484 81.6835 296.21 81.0097L295.611 79.2125C295.214 77.8622 294.494 76.6286 293.515 75.6181C292.882 75.0245 292.373 74.312 292.017 73.5213L289.92 68.7287C289.46 67.6533 288.856 66.6456 288.123 65.7333L286.326 63.337C285.78 62.6204 285.374 61.8075 285.128 60.9407L284.529 60.0421C284.372 59.8298 284.264 59.5855 284.212 59.3267C284.161 59.0678 284.167 58.8008 284.23 58.5444C284.23 58.3119 284.175 58.0826 284.072 57.8747C283.968 57.6667 283.817 57.4858 283.631 57.3463L282.433 56.4477V57.0468C282.732 57.6458 282.433 57.9454 282.133 57.9454H281.534L282.433 60.9407L283.331 62.4384L285.428 65.1343H285.128L284.529 64.5352L283.93 63.9361C283.796 63.0597 283.366 62.2555 282.713 61.6564C282.059 61.0573 281.221 60.6991 280.336 60.6412V58.5444C279.437 54.95 275.544 54.6505 273.747 52.2542C273.463 51.5674 273.014 50.9617 272.439 50.4912C271.864 50.0208 271.181 49.7002 270.452 49.5583L268.056 46.8625C265.567 43.2986 262.414 40.2477 258.771 37.8764L256.375 36.0792L255.177 35.1805C253.08 33.0838 252.182 29.7889 248.588 29.7889L246.191 28.2912L243.496 26.1944C243.023 25.1256 242.275 24.2016 241.327 23.5174C240.38 22.8331 239.268 22.4131 238.105 22.3004C236.156 20.5285 233.783 19.2903 231.216 18.706L231.815 19.3051L233.312 20.5032L237.206 22.6C239.539 23.8602 241.662 25.4772 243.496 27.3926C244.835 28.6915 246.347 29.8002 247.988 30.6875L249.786 32.1852C250.085 32.4847 250.385 32.7842 250.085 33.0838H249.786L247.09 32.1852C244.957 31.7816 242.923 30.9678 241.1 29.7889L237.506 27.9917L233.612 25.8949H233.013C232.114 25.5954 231.815 24.6967 230.617 24.3972L228.221 23.7981L220.733 22.3004C219.69 21.8096 218.769 21.0935 218.037 20.2037C217.072 20.166 216.137 19.8544 215.341 19.3051L212.346 18.1069C209.491 17.5347 206.687 16.7334 203.96 15.7106L202.163 15.1115L199.168 14.2129H197.67L197.071 13.3143V13.0148H192.279L190.482 11.5171L189.284 12.1162L188.086 12.7153H187.487L184.791 11.2176C182.994 13.0148 181.496 10.6185 179.999 10.918L177.004 10.0194C176.457 10.3349 175.838 10.501 175.207 10.501C174.576 10.501 173.956 10.3349 173.41 10.0194H169.815C169.392 9.94795 169.009 9.72748 168.734 9.39786C168.46 9.06824 168.312 8.65122 168.318 8.22219L169.216 7.62312H171.013C171.181 7.89589 171.283 8.20327 171.313 8.52173C171.313 9.12081 171.912 9.1208 172.811 9.1208H173.41L172.212 7.32358C171.798 6.98935 171.309 6.76028 170.788 6.65595C170.266 6.55163 169.727 6.57515 169.216 6.72451L166.221 7.62312H165.922C166.82 8.22219 166.521 8.52173 166.521 9.1208H161.729L160.531 8.52173L158.134 7.32358H157.835L155.738 6.72451H148.849L150.048 6.12543L152.444 5.52636H153.342L158.434 4.62775L161.729 4.02867L163.526 3.4296H160.231C156.872 2.73538 153.407 2.73538 150.048 3.4296H146.154L135.97 3.13006C131.777 3.4296 127.584 3.13006 124.289 6.72451C116.802 5.52636 110.212 8.82127 103.623 12.1162L97.0336 14.812C92.8656 15.4023 88.9887 17.2885 85.9516 20.2037H86.8502L88.3477 19.3051L90.7438 17.8074L94.6375 16.0102L97.6327 15.4111C99.4468 14.152 101.478 13.2382 103.623 12.7153L106.319 11.8166H106.918C107.217 12.4157 108.415 11.8166 109.014 11.8166H109.613C109.913 11.8166 109.913 12.1162 109.613 12.1162L107.816 13.3143L110.811 12.4157L113.207 11.8166L109.314 13.9134L105.42 15.1115C105.035 15.2278 104.678 15.4204 104.369 15.6777C104.06 15.935 103.807 16.2518 103.623 16.6092L102.724 18.1069H103.623L104.821 17.5078C105.129 17.0445 105.525 16.6469 105.988 16.3384C106.451 16.0298 106.971 15.8164 107.517 15.7106L112.009 14.2129H113.507C113.586 14.1732 113.678 14.1667 113.763 14.1948C113.847 14.2229 113.916 14.2833 113.956 14.3627C113.996 14.4421 114.002 14.5341 113.974 14.6184C113.946 14.7026 113.886 14.7723 113.806 14.812C113.207 15.4111 112.009 15.7106 111.41 16.3097H112.009L102.425 19.0055L91.0434 23.7981C89.0876 25.5591 86.7176 26.7957 84.1545 27.3926C82.6369 28.7463 80.9194 29.8576 79.0628 30.6875L76.6667 31.2866C76.3331 32.0539 75.7918 32.7129 75.1039 33.1892C74.4159 33.6655 73.6087 33.9402 72.773 33.9824L71.8745 35.4801C70.9359 36.8316 69.7081 37.9571 68.2803 38.775H67.9808V38.4755L67.3818 39.0745L66.7828 39.6736L63.7876 40.2727H62.2901L61.092 41.7704C60.7925 42.0699 60.7925 42.3694 61.092 42.3694H61.3915C59.5944 44.1667 58.3964 46.563 56.0003 47.4616L52.1066 51.9546C50.3095 55.5491 46.7153 56.7472 44.3192 59.7426C41.9231 62.738 40.126 71.4245 32.6382 72.6227L32.0392 71.7241L31.4402 73.2218C31.1768 74.0816 30.7719 74.8915 30.2421 75.6181C28.8954 77.6263 27.6942 79.7284 26.6479 81.9083C26.3874 82.3615 26.2822 82.8875 26.3484 83.406C26.3938 84.2468 26.1851 85.0818 25.7494 85.8023L24.2518 89.0972H24.8509C25.7494 89.0972 25.7494 89.9959 26.0489 90.8945L28.445 87.5996C28.8892 86.7815 29.5017 86.0669 30.2421 85.5028C31.4102 84.9217 32.3567 83.9752 32.9377 82.807L33.8363 81.9083L35.0343 80.7102L36.8314 77.4153H37.4304C37.7299 77.7148 37.7299 77.7148 38.0295 77.4153L38.6285 76.2171H40.126V78.6134L41.6236 77.1158C41.7551 76.8881 41.8243 76.6298 41.8243 76.3669C41.8243 76.104 41.7551 75.8457 41.6236 75.6181C41.6099 75.4558 41.6293 75.2924 41.6808 75.1379C41.7323 74.9834 41.8148 74.841 41.9231 74.7195C42.3177 74.2838 42.623 73.775 42.8217 73.2218C42.9741 72.6125 43.2716 72.0491 43.6888 71.5797C44.106 71.1103 44.6306 70.7487 45.2178 70.5259L46.1163 69.9269L47.0149 69.0283C48.0701 68.2653 48.8983 67.2299 49.411 66.0329L48.8119 65.1343C48.8119 64.8347 49.1115 64.2357 49.411 63.9361H50.9085L52.7056 61.5398L54.5027 60.6412H55.1017C48.9538 67.3037 43.4389 74.5237 38.6285 82.2079C31.9217 92.6643 26.5866 103.939 22.7543 115.756H21.2567L19.7591 114.558C19.1601 113.959 19.4596 112.461 18.5611 111.862H18.8606C19.7591 110.364 18.5611 108.268 19.7591 106.77C20.9572 105.272 20.0586 102.576 17.0635 103.175C14.0684 103.775 12.5708 104.673 13.1698 107.669C13.7688 110.664 10.1747 113.06 9.87517 116.355C9.57566 119.65 8.37761 117.853 8.97663 119.051V130.733C9.27615 133.129 7.47906 136.125 11.3727 137.023L15.2664 139.719C15.5659 141.217 13.7688 144.512 17.962 143.613C17.4084 148.587 17.1085 153.586 17.0635 158.59C17.0635 161.885 17.363 165.18 17.363 168.475V167.276C17.0635 166.078 17.0635 164.88 16.764 163.382L15.8654 164.281V163.682H14.3679C14.3679 165.18 14.0684 166.078 13.1698 166.378C12.9277 166.838 12.8237 167.358 12.8703 167.876C12.8703 168.175 13.1698 168.774 13.4693 168.475C13.7688 168.175 14.6674 169.074 15.5659 169.673C16.4645 170.272 14.9669 170.571 14.3679 170.272C13.7689 169.972 13.7689 170.571 13.7689 171.17V172.069L15.2664 176.562C15.2664 177.461 14.9669 178.359 14.9669 179.258C14.9669 180.094 15.1726 180.917 15.5659 181.654H14.6674V180.756L12.5708 180.157V178.359C12.6546 177.864 12.6546 177.357 12.5708 176.862C12.1592 175.085 11.8591 173.284 11.6723 171.47C11.1031 168.006 10.9023 164.492 11.0732 160.986C11.0266 160.469 11.1306 159.948 11.3727 159.488V160.088C11.5164 160.577 11.6166 161.078 11.6723 161.585C11.6657 162.004 11.769 162.417 11.9718 162.783C12.2713 163.382 12.5708 163.982 13.1698 163.982C13.7688 163.982 13.4693 163.682 13.4693 163.382C13.4307 162.873 13.3301 162.37 13.1698 161.885C12.6648 160.643 12.3614 159.328 12.2713 157.991C12.1571 157.226 11.8476 156.504 11.3727 155.894C10.9129 155.074 10.7046 154.136 10.7737 153.198V150.802C10.7737 149.903 11.0732 149.005 11.0732 148.106C11.1114 147.897 11.1044 147.681 11.0527 147.475C11.0011 147.268 10.9059 147.075 10.7737 146.908H10.4742C8.07809 148.106 8.37761 147.507 7.47906 151.701V157.092C7.47906 159.189 7.17955 161.286 7.47906 163.382C7.43203 165.694 7.63285 168.003 8.07809 170.272C8.14776 170.769 8.14776 171.273 8.07809 171.77C8.04545 172.678 8.14636 173.586 8.37761 174.465C8.62099 175.748 8.72144 177.054 8.67712 178.359C8.49727 180.08 8.70187 181.819 9.27615 183.451C9.34317 183.848 9.34317 184.253 9.27615 184.65C9.22029 185.46 9.322 186.274 9.57566 187.046C9.85961 187.924 10.0602 188.826 10.1747 189.742C10.4958 191.975 10.9966 194.179 11.6723 196.332C11.9735 197.307 12.1742 198.311 12.2713 199.327C12.4084 200.085 12.7156 200.802 13.1698 201.424C13.9346 202.493 14.4466 203.722 14.6674 205.018C14.9052 206.034 15.2053 207.034 15.5659 208.014L16.764 212.207C17.1343 213.786 17.7401 215.301 18.5611 216.7C19.6346 218.682 20.4404 220.797 20.9572 222.99L21.5562 224.488C22.3169 225.333 22.8344 226.368 23.0538 227.483C23.2764 228.359 23.685 229.176 24.2518 229.88C24.5847 230.315 24.7919 230.833 24.8509 231.377C25.1504 232.276 25.4499 232.576 26.0489 232.276H26.3484V234.972L27.846 237.967L29.3436 240.963L32.6382 244.557L33.8363 245.755C34.7348 246.654 35.9329 247.253 36.5319 248.751L37.7299 249.649C37.9785 249.82 38.1875 250.042 38.3426 250.3C38.4976 250.558 38.5951 250.847 38.6285 251.147L39.2275 253.244C39.6742 254.235 40.2814 255.146 41.0246 255.939L42.2226 256.539H43.1212C43.2075 256.569 43.2857 256.618 43.3498 256.684C43.4139 256.749 43.4623 256.828 43.4912 256.914C43.5201 257.001 43.5288 257.093 43.5166 257.184C43.5044 257.275 43.4716 257.361 43.4207 257.437C43.3707 257.935 43.3707 258.437 43.4207 258.935C43.623 259.564 44.0493 260.097 44.6188 260.433H45.2178C46.4158 260.133 47.6139 261.032 48.8119 262.529H49.1115C49.1115 262.23 49.411 262.23 49.1115 261.93V261.331C49.1115 261.032 49.411 260.732 49.7105 261.032C49.9987 261.232 50.232 261.502 50.389 261.816C50.546 262.13 50.6217 262.478 50.609 262.829V263.428C50.829 264.679 51.2327 265.89 51.8071 267.022C53.3046 267.921 53.3046 267.921 53.3046 267.322C53.3046 266.723 53.3046 266.723 53.9037 266.723H55.1017L55.7008 267.621L58.0969 269.119C60.1935 271.515 63.4881 271.216 65.8842 272.714L70.9759 277.806H71.575C72.0118 278.885 72.6612 279.865 73.4844 280.689C74.3077 281.512 75.288 282.161 76.3672 282.598C76.692 283.11 77.1319 283.54 77.6519 283.852C78.1719 284.164 78.7576 284.35 79.3623 284.396C79.3623 285.893 81.1594 286.193 82.657 286.492C83.2714 287.186 84.1298 287.615 85.0531 287.69H85.6521C86.2236 288.285 86.9311 288.733 87.7138 288.993C88.4964 289.254 89.3307 289.321 90.1448 289.188L92.8404 291.584L100.029 294.28V294.879C101.526 298.174 105.12 296.976 107.517 297.875L110.811 299.073H112.009C115.603 299.971 119.198 301.769 123.091 300.571C122.975 300.961 122.975 301.378 123.091 301.769C126.386 303.865 130.28 301.769 133.874 302.967C135.503 303.574 137.277 303.678 138.966 303.266H139.265L141.661 303.865H142.56L145.255 304.465H146.154C146.382 304.333 146.64 304.264 146.903 304.264C147.166 304.264 147.424 304.333 147.651 304.465C149.106 305.01 150.611 305.412 152.144 305.663H153.941C154.26 305.479 154.621 305.382 154.99 305.382C155.358 305.382 155.719 305.479 156.038 305.663H167.719C169.322 305.821 170.94 305.72 172.511 305.363H175.506L177.004 304.764H186.888L188.685 304.165L190.182 303.266H196.772V305.064H192.878L189.284 305.663C188.086 305.962 187.187 305.663 186.289 305.962C185.345 306.374 184.323 306.578 183.294 306.561L179.4 307.46H178.202C176.702 307.19 175.159 307.292 173.709 307.759H168.318C167.894 307.95 167.435 308.048 166.97 308.048C166.505 308.048 166.046 307.95 165.622 307.759H152.144C151.563 307.649 150.964 307.673 150.393 307.828C149.822 307.984 149.294 308.268 148.849 308.658H147.951L147.052 308.059V307.16H143.458C142.218 306.65 140.903 306.347 139.565 306.262H132.077L129.98 305.663L128.483 305.064L122.193 303.865H120.695L119.198 303.266L112.908 301.17L108.715 299.971H102.125C101.826 299.971 101.826 300.271 101.826 300.571H102.425C106.319 302.068 110.212 303.266 114.106 305.064H115.004L117.7 305.663L121.893 306.861H125.787L127.584 307.46L129.681 308.359L134.772 309.257L138.067 309.856L141.362 310.455H143.758L146.154 311.054H155.439L158.434 311.653H165.323L168.318 311.054H174.907C176.105 311.054 176.704 310.755 177.004 310.156H179.999C180.44 310.192 180.883 310.131 181.298 309.975C181.712 309.82 182.087 309.575 182.395 309.257C182.095 309.557 182.395 309.557 182.695 309.856H183.893V309.257C183.893 308.958 183.893 308.958 184.492 308.658C185.091 308.358 186.289 308.358 186.588 308.958H187.786L188.685 308.359C189.284 308.359 189.284 308.358 189.284 308.658H191.38L192.878 308.059L195.274 306.861C195.574 307.759 196.472 308.059 199.168 307.46L203.061 306.262H206.656C209.351 305.962 212.646 306.262 214.742 304.165H215.341L216.54 303.266L219.834 302.368C221.957 301.931 223.986 301.119 225.824 299.971L227.023 299.372H227.322L230.018 297.575L231.216 296.976L232.713 296.377H233.911C235.109 296.077 235.109 296.077 235.409 295.179C235.708 294.28 235.409 294.879 234.81 294.879H234.51L235.708 293.382H236.307C237.206 293.082 237.805 292.783 238.404 293.082H239.003C239.646 292.902 240.231 292.559 240.703 292.087C241.175 291.615 241.518 291.029 241.699 290.386C242.597 289.188 244.993 289.787 245.592 287.99L258.471 278.704C261.766 278.405 262.665 275.409 265.061 273.612C267.457 271.815 271.95 270.317 274.046 267.022L276.742 265.824H277.041C277.795 266.009 278.591 265.893 279.262 265.502C279.932 265.111 280.425 264.475 280.635 263.727V264.926C283.032 263.727 286.027 265.824 288.423 263.428C290.819 261.032 288.423 255.34 291.418 252.045L293.515 250.548C295.779 246.669 297.302 242.403 298.007 237.967L298.606 237.368C298.606 236.47 298.606 235.271 299.804 234.672C300.336 234.257 300.692 233.657 300.803 232.992C300.914 232.326 300.771 231.643 300.403 231.078H299.804C299.883 230.941 299.925 230.786 299.925 230.629C299.925 230.471 299.883 230.316 299.804 230.179C301.901 230.179 302.2 228.083 303.399 227.184V222.99C303.358 222.793 303.358 222.589 303.399 222.391C303.563 221.703 303.664 221.001 303.698 220.295Z" fill="url(#paint2_linear_290_290)"/>
<path d="M86.2512 20.2037L85.3526 20.8028L84.1546 21.7014L85.6522 21.1023L86.2512 20.2037ZM104.522 14.2129H104.821L105.72 13.6139H104.522V14.2129ZM96.7342 17.2083L96.4346 17.5079H96.7342V17.2083ZM34.7348 70.8255L33.5368 72.0236H34.1358C34.3436 71.9063 34.5117 71.7296 34.6184 71.5161C34.7251 71.3026 34.7657 71.0622 34.7348 70.8255ZM43.7202 60.3417C44.1141 59.7946 44.4175 59.1878 44.6188 58.5445C44.0074 58.9172 43.4939 59.4307 43.1212 60.0421C42.8217 60.3417 42.8217 60.6412 43.1212 60.6412L43.7202 60.3417ZM40.1261 64.8347V64.2357C39.5271 64.2357 38.6285 65.1343 37.73 65.1343V65.7334C38.6285 66.632 38.928 66.3324 40.1261 64.8347ZM228.52 19.9041H228.82L227.322 19.0055L228.52 19.9041ZM221.032 15.7106C222.53 15.4111 223.428 16.9088 224.626 17.2083H224.926L224.027 16.6092L221.032 15.1116L217.738 13.6139L218.636 14.2129L221.032 15.7106ZM200.366 7.62312H200.066L196.472 7.02405H197.97L200.366 7.62312ZM206.356 9.71988L210.25 10.918C209.049 10.2526 207.723 9.84454 206.356 9.71988ZM179.4 9.71988C179.733 9.28483 179.94 8.76681 179.999 8.2222H178.501L177.603 9.12081L178.801 10.0194L179.4 9.71988ZM193.777 10.6185C193.767 10.7181 193.767 10.8184 193.777 10.918V10.6185ZM327.959 167.276H327.06V166.078H327.959C328.258 166.078 328.558 165.18 328.258 164.88C327.959 164.581 327.959 162.783 327.36 162.484C327.176 162.419 327.018 162.297 326.91 162.135C326.802 161.973 326.75 161.78 326.761 161.585L327.36 160.387C327.41 160.191 327.41 159.985 327.36 159.788H326.761L326.162 158.889C325.862 159.788 325.563 160.687 324.964 160.986C324.923 161.184 324.923 161.388 324.964 161.585C324.964 161.885 324.964 162.184 324.664 162.184H324.365C324.308 162.497 324.208 162.799 324.065 163.083C323.476 163.885 323.067 164.804 322.867 165.779C322.803 165.987 322.798 166.208 322.85 166.419C322.903 166.631 323.012 166.823 323.166 166.977H323.466C323.175 167.74 323.073 168.562 323.166 169.373V170.571C323.138 171.082 323.037 171.587 322.867 172.069H322.567L321.369 174.166V175.963C321.515 177.137 321.192 178.321 320.471 179.258H319.872L319.273 178.659C319.04 178.31 318.892 177.912 318.84 177.496C318.788 177.08 318.833 176.658 318.973 176.263C319.296 174.586 319.397 172.874 319.273 171.17C319.273 170.871 318.973 170.571 318.973 170.571C318.779 170.831 318.674 171.146 318.674 171.47V173.267C318.674 173.866 318.374 175.064 317.775 175.364C317.176 175.664 317.476 175.963 317.476 176.263L316.877 178.06L317.775 179.558C317.176 180.157 316.577 179.857 316.278 179.258V182.253H317.176V183.451C316.639 184.788 316.335 186.206 316.278 187.645C316.253 188.044 316.253 188.444 316.278 188.843C316.294 190.165 316.092 191.481 315.679 192.737C315.588 193.333 315.588 193.939 315.679 194.534L314.78 196.631C314.565 197.363 314.263 198.067 313.882 198.728L312.983 200.525L310.287 208.613C311.186 211.308 309.089 213.106 307.891 214.903C308.059 216.159 307.93 217.436 307.514 218.633C307.098 219.83 306.406 220.912 305.495 221.792V222.99C305.495 223.29 305.795 223.589 306.394 223.29L307.592 222.391L308.191 221.193H308.79C309.089 221.493 309.389 221.493 309.988 220.894H310.587C310.827 221.119 310.987 221.417 311.041 221.741C311.096 222.066 311.041 222.4 310.886 222.691C310.675 223.472 310.575 224.278 310.587 225.087C310.587 225.387 310.587 225.686 310.886 225.686H311.485C311.785 225.986 312.084 225.686 312.384 224.788L312.983 223.29H313.882C315.08 222.99 315.08 222.99 315.679 221.493L317.176 218.797L318.075 217L319.273 214.004C319.229 212.933 319.545 211.879 320.171 211.009C320.377 210.763 320.513 210.467 320.566 210.151C320.618 209.835 320.586 209.511 320.471 209.212C320.471 208.613 320.471 208.313 321.07 207.414L321.968 206.216L323.466 203.221C323.577 202.305 323.777 201.402 324.065 200.525C324.653 199.311 324.96 197.98 324.964 196.631C325.149 195.698 325.451 194.793 325.862 193.935V192.438C325.563 191.839 325.563 191.839 325.862 190.64C326.162 189.442 326.162 190.041 326.461 190.041C326.569 190.163 326.652 190.305 326.703 190.46C326.755 190.614 326.774 190.778 326.761 190.94L327.36 189.442C327.739 188.593 327.943 187.676 327.959 186.746V185.848C327.959 185.548 327.959 184.949 327.659 184.949V186.147C327.06 186.147 326.761 186.746 326.162 187.046C326.312 186.254 326.412 185.454 326.461 184.65L327.659 184.051C327.893 183.819 328.069 183.536 328.173 183.223C328.277 182.911 328.306 182.579 328.258 182.253C328.226 181.955 328.226 181.653 328.258 181.355C328.664 179.994 328.866 178.581 328.857 177.161V176.562L329.756 173.567H330.055C330.184 173.46 330.28 173.319 330.333 173.16C330.386 173.001 330.393 172.831 330.355 172.668H330.055C329.957 172.25 329.96 171.814 330.064 171.397C330.168 170.981 330.371 170.595 330.654 170.272C330.469 169.597 330.129 168.975 329.661 168.455C329.193 167.935 328.61 167.531 327.959 167.276ZM34.4353 84.6042C34.5038 84.4104 34.5038 84.1989 34.4353 84.0051L33.8363 83.406L33.2373 84.0051L32.3387 85.8023C32.3387 86.701 31.4402 87.5996 31.4402 88.4982V89.0973H31.7397L34.4353 84.6042ZM322.867 158.889H323.166C323.803 157.806 324.016 156.526 323.765 155.295C323.712 155.014 323.74 154.724 323.846 154.459C323.952 154.193 324.132 153.964 324.365 153.797H324.664V153.198L324.065 152.599H323.765C323.466 152.899 323.166 153.498 322.867 153.498C322.567 153.498 322.567 153.797 322.567 154.396V155.295C322.331 156.498 322.435 157.742 322.867 158.889ZM46.7154 262.23C46.4159 262.23 46.7154 262.829 46.7154 263.128L49.1115 265.525H49.411C48.812 264.626 48.5125 263.727 48.812 263.428C48.2633 263.386 47.7408 263.177 47.3144 262.829L46.7154 262.23ZM325.563 156.194H325.862C325.952 155.598 325.952 154.992 325.862 154.396C324.964 154.696 324.964 154.696 324.964 156.194C324.964 157.691 325.263 156.493 325.563 156.194Z" fill="#FFD168"/>
<path d="M326.76 178.06C326.917 177.847 327.025 177.603 327.077 177.344C327.129 177.085 327.123 176.818 327.06 176.562C327.06 176.263 326.76 175.963 326.76 176.263H326.161V176.862C326.161 178.06 326.461 178.359 326.76 178.06ZM327.06 153.498H326.76V155.295C327.044 154.741 327.149 154.113 327.06 153.498ZM58.3963 269.718H57.7973V270.317L58.3963 270.916H58.9953V270.317L58.3963 269.718ZM317.775 169.972C317.775 169.673 317.775 169.673 317.476 169.673L317.775 169.972ZM36.8313 251.446L38.3289 252.944L37.1308 251.147L36.8313 251.446Z" fill="url(#paint3_linear_290_290)"/>
<path d="M285.428 62.738L284.829 61.8394H284.529L285.428 62.738ZM24.5513 89.3968C24.7246 89.2432 24.8319 89.0285 24.8508 88.7977V89.3968H24.5513ZM56.2997 269.419H56.0002C56.2997 269.718 56.5992 269.419 56.2997 269.119V269.419ZM56.8987 271.515H57.1983L56.8987 271.216V271.515Z" fill="url(#paint4_linear_290_290)"/>
<path d="M197.832 107.787C197.525 107.787 197.277 107.539 197.277 107.233C197.277 106.926 197.525 106.678 197.832 106.678L209.57 106.699C209.877 106.699 210.125 106.947 210.125 107.254C210.125 107.56 209.877 107.808 209.57 107.808L197.832 107.787ZM168.587 83.3745C169.858 83.3745 171.01 82.8588 171.842 82.0255C172.675 81.1921 173.191 80.041 173.191 78.7701C173.191 77.4991 172.675 76.3466 171.842 75.5146C171.009 74.6813 169.858 74.1657 168.587 74.1657C167.316 74.1657 166.163 74.6813 165.332 75.5146C164.498 76.348 163.983 77.4991 163.983 78.7701C163.983 80.041 164.498 81.1935 165.332 82.0255C166.165 82.8588 167.316 83.3745 168.587 83.3745ZM172.631 82.8142C171.595 83.8497 170.166 84.4893 168.587 84.4893C167.008 84.4893 165.578 83.8497 164.543 82.8142C163.507 81.7788 162.868 80.349 162.868 78.7701C162.868 77.1911 163.507 75.7613 164.543 74.7259C165.578 73.6904 167.008 73.0508 168.587 73.0508C170.166 73.0508 171.595 73.6904 172.631 74.7259C173.666 75.7613 174.306 77.1911 174.306 78.7701C174.306 80.349 173.666 81.7788 172.631 82.8142ZM152.9 92.7477C152.9 94.3448 153.548 95.7913 154.595 96.8379C155.641 97.8845 157.088 98.5325 158.685 98.5325C159.639 98.5325 160.537 98.304 161.324 97.8984C162.145 97.4776 162.853 96.8644 163.388 96.1174C164.601 94.427 165.718 94.4465 167.727 94.4813C167.953 94.4855 168.194 94.4897 168.64 94.4897C169.086 94.4897 169.327 94.4855 169.552 94.4813C171.562 94.4465 172.678 94.427 173.892 96.1174C174.427 96.863 175.135 97.4762 175.955 97.8984C176.744 98.304 177.642 98.5325 178.595 98.5325C180.192 98.5325 181.638 97.8845 182.684 96.8379C183.731 95.7913 184.379 94.3448 184.379 92.7477C184.379 91.1507 183.731 89.7041 182.684 88.6576C181.638 87.611 180.192 86.963 178.595 86.963C177.64 86.963 176.743 87.1915 175.955 87.597C175.135 88.0179 174.427 88.6311 173.892 89.378C172.678 91.0685 171.562 91.0489 169.552 91.0141C169.327 91.0099 169.086 91.0057 168.64 91.0057C168.194 91.0057 167.953 91.0099 167.727 91.0141C165.718 91.0489 164.601 91.0685 163.388 89.378C162.853 88.6325 162.145 88.0193 161.324 87.597C160.535 87.1915 159.638 86.963 158.685 86.963C157.088 86.963 155.641 87.611 154.595 88.6576C153.548 89.7041 152.9 91.1507 152.9 92.7477ZM153.806 97.6267C152.558 96.378 151.786 94.6528 151.786 92.7477C151.786 90.8427 152.558 89.1174 153.806 87.8688C155.055 86.6201 156.78 85.8481 158.685 85.8481C159.815 85.8481 160.884 86.1226 161.83 86.6076C162.809 87.1107 163.652 87.8409 164.289 88.7272C165.164 89.9452 166.073 89.9299 167.709 89.902C168.056 89.8965 168.426 89.8895 168.638 89.8895C168.85 89.8895 169.221 89.8965 169.568 89.902C171.204 89.9299 172.112 89.9466 172.987 88.7272C173.624 87.8409 174.467 87.1107 175.447 86.6076C176.393 86.1212 177.462 85.8481 178.592 85.8481C180.497 85.8481 182.222 86.6201 183.47 87.8688C184.719 89.1174 185.491 90.8427 185.491 92.7477C185.491 94.6528 184.719 96.378 183.47 97.6267C182.222 98.8753 180.497 99.6474 178.592 99.6474C177.462 99.6474 176.393 99.3728 175.447 98.8879C174.467 98.3848 173.624 97.6545 172.987 96.7682C172.112 95.5502 171.204 95.5656 169.568 95.5934C169.221 95.599 168.85 95.606 168.638 95.606C168.426 95.606 168.056 95.599 167.709 95.5934C166.073 95.5656 165.164 95.5488 164.289 96.7682C163.652 97.6545 162.809 98.3848 161.83 98.8879C160.884 99.3742 159.815 99.6474 158.685 99.6474C156.78 99.6474 155.055 98.8753 153.806 97.6267ZM168.587 130.242C170.166 130.242 171.595 130.882 172.631 131.917C173.666 132.953 174.306 134.383 174.306 135.961C174.306 137.54 173.666 138.97 172.631 140.006C171.595 141.041 170.166 141.681 168.587 141.681C167.008 141.681 165.578 141.041 164.543 140.006C163.507 138.97 162.868 137.54 162.868 135.961C162.868 134.383 163.507 132.953 164.543 131.917C165.578 130.882 167.008 130.242 168.587 130.242ZM171.842 132.706C171.009 131.873 169.858 131.357 168.587 131.357C167.316 131.357 166.163 131.873 165.332 132.706C164.498 133.539 163.983 134.69 163.983 135.961C163.983 137.232 164.498 138.385 165.332 139.217C166.165 140.05 167.316 140.566 168.587 140.566C169.858 140.566 171.01 140.05 171.842 139.217C172.675 138.383 173.191 137.232 173.191 135.961C173.191 134.69 172.675 133.538 171.842 132.706ZM194.398 107.216C194.398 105.619 193.75 104.172 192.704 103.126C191.657 102.079 190.211 101.431 188.614 101.431C187.659 101.431 186.762 101.66 185.974 102.065C185.154 102.486 184.446 103.099 183.911 103.846C182.697 105.537 181.581 105.517 179.571 105.482C179.346 105.478 179.105 105.474 178.659 105.474C178.213 105.474 177.972 105.478 177.746 105.482C175.737 105.517 174.62 105.537 173.407 103.846C172.872 103.101 172.164 102.488 171.343 102.065C170.554 101.66 169.657 101.431 168.704 101.431C167.692 101.431 166.743 101.69 165.917 102.145C165.06 102.616 164.337 103.3 163.813 104.125C163.792 104.158 163.767 104.189 163.74 104.216C162.606 105.569 161.515 105.551 159.66 105.519C159.436 105.514 159.195 105.51 158.749 105.51C158.303 105.51 158.062 105.514 157.836 105.519C155.827 105.553 154.71 105.573 153.497 103.882C152.962 103.137 152.254 102.524 151.433 102.101C150.644 101.696 149.747 101.467 148.794 101.467C147.197 101.467 145.75 102.115 144.704 103.162C143.657 104.209 143.009 105.655 143.009 107.252C143.009 108.849 143.657 110.296 144.704 111.342C145.75 112.389 147.197 113.037 148.794 113.037C149.748 113.037 150.646 112.808 151.433 112.403C152.254 111.982 152.962 111.369 153.497 110.622C154.71 108.931 155.827 108.951 157.836 108.986C158.062 108.99 158.303 108.994 158.749 108.994C159.195 108.994 159.436 108.99 159.661 108.986C161.671 108.951 162.787 108.931 164.001 110.622C164.536 111.367 165.244 111.981 166.065 112.403C166.853 112.808 167.751 113.037 168.704 113.037C169.715 113.037 170.664 112.778 171.491 112.323C172.348 111.852 173.071 111.168 173.595 110.343C173.616 110.31 173.641 110.279 173.667 110.253C174.802 108.899 175.893 108.918 177.747 108.95C177.972 108.954 178.213 108.958 178.659 108.958C179.105 108.958 179.346 108.954 179.571 108.95C181.581 108.915 182.697 108.895 183.911 110.586C184.446 111.331 185.154 111.944 185.974 112.367C186.763 112.772 187.661 113.001 188.614 113.001C190.211 113.001 191.657 112.353 192.704 111.306C193.75 110.26 194.398 108.813 194.398 107.216ZM193.492 102.337C194.741 103.586 195.513 105.311 195.513 107.216C195.513 109.121 194.741 110.846 193.492 112.095C192.244 113.344 190.519 114.116 188.614 114.116C187.484 114.116 186.415 113.841 185.469 113.356C184.489 112.853 183.646 112.123 183.009 111.236C182.134 110.018 181.226 110.034 179.59 110.062C179.243 110.067 178.872 110.074 178.66 110.074C178.448 110.074 178.078 110.067 177.731 110.062C176.213 110.035 175.32 110.02 174.522 110.963C173.9 111.935 173.042 112.742 172.027 113.3C171.041 113.844 169.908 114.153 168.705 114.153C167.575 114.153 166.506 113.879 165.56 113.394C164.58 112.891 163.737 112.16 163.101 111.274C162.225 110.056 161.317 110.071 159.681 110.099C159.334 110.105 158.963 110.112 158.752 110.112C158.54 110.112 158.169 110.105 157.822 110.099C156.186 110.071 155.278 110.055 154.402 111.274C153.766 112.16 152.923 112.891 151.943 113.394C150.997 113.88 149.928 114.153 148.798 114.153C146.893 114.153 145.168 113.381 143.919 112.133C142.671 110.884 141.899 109.159 141.899 107.254C141.899 105.349 142.671 103.623 143.919 102.375C145.168 101.126 146.893 100.354 148.798 100.354C149.928 100.354 150.997 100.628 151.943 101.113C152.923 101.617 153.766 102.347 154.402 103.233C155.278 104.451 156.186 104.436 157.822 104.408C158.169 104.402 158.54 104.395 158.752 104.395C158.963 104.395 159.334 104.402 159.681 104.408C161.198 104.434 162.092 104.45 162.89 103.506C163.512 102.535 164.37 101.728 165.384 101.169C166.371 100.626 167.504 100.316 168.707 100.316C169.837 100.316 170.905 100.591 171.852 101.076C172.831 101.579 173.674 102.309 174.311 103.195C175.186 104.413 176.095 104.398 177.731 104.37C178.078 104.365 178.448 104.358 178.66 104.358C178.872 104.358 179.243 104.365 179.59 104.37C181.226 104.398 182.134 104.415 183.009 103.195C183.646 102.309 184.489 101.579 185.469 101.076C186.415 100.589 187.484 100.316 188.614 100.316C190.519 100.316 192.244 101.088 193.492 102.337ZM151.784 121.982C151.784 120.077 152.556 118.352 153.805 117.103C155.053 115.855 156.778 115.083 158.683 115.083C159.813 115.083 160.882 115.357 161.828 115.842C162.808 116.345 163.651 117.076 164.288 117.962C165.163 119.18 166.071 119.165 167.707 119.137C168.054 119.131 168.425 119.124 168.637 119.124C168.849 119.124 169.219 119.131 169.566 119.137C171.202 119.165 172.111 119.181 172.986 117.962C173.623 117.076 174.466 116.345 175.445 115.842C176.392 115.356 177.46 115.083 178.59 115.083C180.495 115.083 182.22 115.855 183.469 117.103C184.718 118.352 185.49 120.077 185.49 121.982C185.49 123.887 184.718 125.613 183.469 126.861C182.22 128.11 180.495 128.882 178.59 128.882C177.46 128.882 176.392 128.607 175.445 128.123C174.466 127.619 173.623 126.889 172.986 126.003C172.111 124.785 171.202 124.8 169.566 124.828C169.219 124.834 168.849 124.841 168.637 124.841C168.425 124.841 168.054 124.834 167.707 124.828C166.071 124.8 165.163 124.783 164.288 126.003C163.651 126.889 162.808 127.619 161.828 128.123C160.882 128.609 159.813 128.882 158.683 128.882C156.778 128.882 155.053 128.11 153.805 126.861C152.556 125.613 151.784 123.887 151.784 121.982ZM154.593 117.892C153.547 118.939 152.899 120.385 152.899 121.982C152.899 123.579 153.547 125.026 154.593 126.073C155.64 127.119 157.086 127.767 158.683 127.767C159.638 127.767 160.535 127.539 161.323 127.133C162.143 126.712 162.851 126.099 163.386 125.352C164.6 123.662 165.716 123.681 167.726 123.716C167.951 123.72 168.192 123.724 168.638 123.724C169.084 123.724 169.325 123.72 169.551 123.716C171.56 123.681 172.677 123.662 173.89 125.352C174.425 126.098 175.133 126.711 175.954 127.133C176.743 127.539 177.64 127.767 178.593 127.767C180.19 127.767 181.637 127.119 182.683 126.073C183.73 125.026 184.378 123.579 184.378 121.982C184.378 120.385 183.73 118.939 182.683 117.892C181.637 116.846 180.19 116.198 178.593 116.198C177.639 116.198 176.741 116.426 175.954 116.832C175.133 117.253 174.425 117.866 173.89 118.613C172.677 120.303 171.56 120.284 169.551 120.249C169.325 120.245 169.084 120.24 168.638 120.24C168.192 120.24 167.951 120.245 167.726 120.249C165.716 120.284 164.6 120.303 163.386 118.613C162.851 117.867 162.143 117.254 161.323 116.832C160.534 116.426 159.636 116.198 158.683 116.198C157.086 116.198 155.64 116.846 154.593 117.892ZM149.584 121.156C149.89 121.156 150.138 121.404 150.138 121.711C150.138 122.017 149.89 122.265 149.584 122.265L137.334 122.236C137.027 122.236 136.779 121.988 136.779 121.681C136.779 121.375 137.027 121.127 137.334 121.127L149.584 121.156ZM187.857 122.267C187.551 122.267 187.302 122.019 187.302 121.712C187.302 121.405 187.551 121.157 187.857 121.157L200.107 121.128C200.414 121.128 200.662 121.376 200.662 121.683C200.662 121.989 200.414 122.237 200.107 122.237L187.857 122.267ZM169.756 136.053C169.662 136.123 169.547 136.165 169.421 136.164L168.754 136.161L168.086 136.164C167.961 136.164 167.845 136.123 167.752 136.053C167.611 135.952 167.521 135.787 167.522 135.601C167.523 135.294 167.773 135.046 168.079 135.047L168.754 135.05L169.428 135.047C169.735 135.046 169.984 135.294 169.986 135.601C169.987 135.787 169.895 135.952 169.756 136.053ZM161.222 135.021C161.529 135.022 161.777 135.272 161.775 135.578C161.774 135.885 161.525 136.133 161.218 136.131L150.122 136.088C149.815 136.087 149.567 135.837 149.569 135.531C149.57 135.224 149.819 134.976 150.126 134.978L161.222 135.021ZM176.291 136.131C175.985 136.133 175.735 135.885 175.734 135.578C175.732 135.272 175.98 135.022 176.287 135.021L187.383 134.978C187.69 134.976 187.939 135.224 187.941 135.531C187.942 135.837 187.694 136.087 187.387 136.088L176.291 136.131ZM149.584 92.2363C149.89 92.2363 150.138 92.4843 150.138 92.7909C150.138 93.0975 149.89 93.3456 149.584 93.3456L137.334 93.3748C137.027 93.3748 136.779 93.1268 136.779 92.8202C136.779 92.5136 137.027 92.2655 137.334 92.2655L149.584 92.2363ZM187.857 93.347C187.551 93.347 187.302 93.0989 187.302 92.7923C187.302 92.4857 187.551 92.2377 187.857 92.2377L200.107 92.2669C200.414 92.2669 200.662 92.515 200.662 92.8216C200.662 93.1282 200.414 93.3762 200.107 93.3762L187.857 93.347ZM169.421 78.3394C169.547 78.3394 169.662 78.3799 169.756 78.4495C169.897 78.5513 169.987 78.7157 169.986 78.9024C169.984 79.209 169.735 79.4571 169.428 79.4557L168.754 79.4529L168.079 79.4557C167.773 79.4571 167.523 79.209 167.522 78.9024C167.521 78.7157 167.613 78.5513 167.752 78.4495C167.845 78.3799 167.961 78.338 168.086 78.3394L168.754 78.3422L169.421 78.3394ZM161.218 78.3715C161.525 78.3701 161.774 78.6182 161.775 78.9247C161.777 79.2313 161.529 79.4808 161.222 79.4822L150.126 79.5254C149.819 79.5268 149.57 79.2787 149.569 78.9721C149.567 78.6655 149.815 78.4161 150.122 78.4147L161.218 78.3715ZM176.287 79.4822C175.98 79.4808 175.732 79.2313 175.734 78.9247C175.735 78.6182 175.985 78.3701 176.291 78.3715L187.387 78.4147C187.694 78.4161 187.942 78.6655 187.941 78.9721C187.939 79.2787 187.69 79.5268 187.383 79.5254L176.287 79.4822ZM139.651 106.675C139.958 106.675 140.206 106.923 140.206 107.23C140.206 107.536 139.958 107.785 139.651 107.785L127.913 107.805C127.606 107.805 127.358 107.557 127.358 107.251C127.358 106.944 127.606 106.696 127.913 106.696L139.651 106.675Z" fill="#151A20" stroke="black" stroke-width="2"/>
<path d="M65.2827 170.918V162.032H87.2267V170.918H81.3233V194.951H87.2267V206.401H65.2827V194.951H71.1861V170.918H65.2827ZM114.716 184.694C115.73 185.409 116.386 186.483 116.386 188.093V198.529C116.386 204.075 113.166 206.401 103.327 206.401C93.309 206.401 90.2082 203.956 90.2082 198.529V192.029H99.0335V193.818C99.0335 195.249 100.107 195.905 103.565 195.905C106.964 195.905 108.097 195.249 108.097 193.818V190.896C108.097 190.001 107.799 189.405 106.666 189.047C106.189 188.928 105.712 188.868 105.175 188.868C104.46 188.928 101.717 188.928 101.18 188.928C94.919 188.689 91.8778 187.258 90.7449 184.395C90.3871 183.441 90.2082 182.368 90.2082 181.115V170.202C90.2082 164.835 93.309 162.032 102.79 162.032C113.285 162.032 115.372 164.716 115.372 170.202V179.207H106.785V174.436C106.785 171.812 106.249 170.56 103.685 170.56C101.299 170.56 100.584 171.872 100.584 174.436V179.565C100.584 179.863 100.882 183.203 104.46 183.203C107.084 183.203 112.093 182.845 114.716 184.694ZM119.367 177.299V162.032H151.806V177.299H140.655V206.401H130.518V177.299H119.367ZM154.788 179.684H176.732V189.226H154.788V179.684ZM189.195 197.694H215.193V206.401H179.713V162.032H189.195V197.694ZM213.106 169.367H207.918V184.634H213.106V194.056H193.846V184.634H198.974V169.367H193.846V162.032H213.106V169.367ZM218.175 162.032H272.2V173.482H261.109V206.401H250.912V173.482H234.275V179.684H247.096V188.629H234.275V206.401H224.078V173.482H218.175V162.032Z" fill="#151A20"/>
<path d="M87.5487 220.16C87.5802 220.16 87.6011 220.181 87.6011 220.212V220.424C87.6011 220.455 87.5802 220.476 87.5487 220.476H86.027C85.9956 220.476 85.9746 220.455 85.9746 220.424V220.212C85.9746 220.181 85.9956 220.16 86.027 220.16H86.6368V218.346H86.0672C86.0358 218.346 86.0148 218.325 86.0148 218.294V218.083C86.0148 218.051 86.0358 218.03 86.0672 218.03H86.9617C86.9932 218.03 87.0141 218.051 87.0141 218.083V220.16H87.5487ZM90.6452 218.402C90.5229 218.402 90.4268 218.306 90.4268 218.186C90.4268 218.063 90.5229 217.967 90.6452 217.967C90.7657 217.967 90.8618 218.063 90.8618 218.186C90.8618 218.306 90.7657 218.402 90.6452 218.402ZM91.3545 220.16C91.386 220.16 91.4069 220.181 91.4069 220.212V220.424C91.4069 220.455 91.386 220.476 91.3545 220.476H89.8503C89.8188 220.476 89.7979 220.455 89.7979 220.424V220.212C89.7979 220.181 89.8188 220.16 89.8503 220.16H90.46V219.08H89.9376C89.9062 219.08 89.8852 219.059 89.8852 219.028V218.816C89.8852 218.785 89.9062 218.764 89.9376 218.764H90.785C90.8164 218.764 90.8374 218.785 90.8374 218.816V220.16H91.3545ZM95.2896 218.764C95.321 218.764 95.342 218.785 95.342 218.816V219.024C95.342 219.056 95.321 219.077 95.2896 219.077H94.4527V220.424C94.4527 220.455 94.4317 220.476 94.4003 220.476H94.1277C94.0963 220.476 94.0753 220.455 94.0753 220.424V219.077H93.6298C93.5984 219.077 93.5774 219.056 93.5774 219.024V218.816C93.5774 218.785 93.5984 218.764 93.6298 218.764H94.0753V218.593C94.0753 218.048 94.4387 217.904 94.8423 217.904C95.0467 217.904 95.3245 217.943 95.3245 218.018V218.215C95.3245 218.25 95.3 218.271 95.2616 218.264C95.2197 218.257 95.1253 218.224 94.9279 218.224C94.6728 218.224 94.4527 218.299 94.4527 218.628V218.764H95.2896ZM99.2316 220.188C99.2508 220.211 99.2543 220.237 99.2351 220.26C99.1617 220.35 98.9713 220.504 98.6586 220.504C98.3004 220.504 97.9632 220.371 97.9632 219.811V219.08H97.5299C97.4985 219.08 97.4775 219.059 97.4775 219.028V218.816C97.4775 218.785 97.4985 218.764 97.5299 218.764H97.9632V218.31C97.9632 218.278 97.9842 218.257 98.0156 218.257H98.2882C98.3196 218.257 98.3406 218.278 98.3406 218.31V218.764H99.0307C99.0621 218.764 99.0831 218.785 99.0831 218.816V219.028C99.0831 219.059 99.0621 219.08 99.0307 219.08H98.3406V219.77C98.3406 220.097 98.5293 220.165 98.7232 220.165C98.8682 220.165 98.973 220.102 99.0412 220.048C99.0656 220.025 99.0936 220.027 99.1146 220.052L99.2316 220.188ZM106.263 218.764C106.302 218.764 106.321 218.785 106.305 218.823L105.362 221.098C105.351 221.126 105.327 221.14 105.299 221.14H105.026C104.988 221.14 104.969 221.119 104.984 221.081L105.234 220.48L104.54 218.823C104.525 218.785 104.544 218.764 104.582 218.764H104.855C104.883 218.764 104.907 218.778 104.918 218.806L105.423 220.052L105.926 218.806C105.938 218.778 105.961 218.764 105.989 218.764H106.263ZM109.391 220.522C108.893 220.522 108.491 220.127 108.491 219.624C108.491 219.122 108.893 218.725 109.391 218.725C109.887 218.725 110.289 219.122 110.289 219.624C110.289 220.127 109.887 220.522 109.391 220.522ZM109.391 220.17C109.692 220.17 109.924 219.926 109.924 219.624C109.924 219.323 109.692 219.075 109.391 219.075C109.089 219.075 108.856 219.323 108.856 219.624C108.856 219.926 109.089 220.17 109.391 220.17ZM114.112 218.764C114.144 218.764 114.165 218.785 114.165 218.816V220.424C114.165 220.455 114.144 220.476 114.112 220.476H113.854C113.822 220.476 113.805 220.455 113.801 220.424L113.787 220.191H113.752C113.646 220.357 113.461 220.515 113.181 220.515C112.814 220.515 112.556 220.267 112.556 219.809V218.816C112.556 218.785 112.577 218.764 112.608 218.764H112.881C112.912 218.764 112.933 218.785 112.933 218.816V219.753C112.933 220.045 113.087 220.169 113.333 220.169C113.641 220.169 113.787 219.88 113.787 219.804V218.816C113.787 218.785 113.808 218.764 113.84 218.764H114.112ZM117.525 218.725C117.902 218.725 118.18 218.956 118.18 219.391C118.18 219.424 118.163 219.444 118.129 219.447L117.857 219.486C117.824 219.491 117.804 219.472 117.801 219.438C117.785 219.183 117.628 219.077 117.404 219.077C117.051 219.077 116.887 219.372 116.887 219.477V220.424C116.887 220.455 116.866 220.476 116.835 220.476H116.562C116.531 220.476 116.51 220.455 116.51 220.424V218.816C116.51 218.785 116.531 218.764 116.562 218.764H116.821C116.852 218.764 116.87 218.785 116.873 218.816L116.887 219.047H116.926C117.038 218.883 117.245 218.725 117.525 218.725ZM124.527 218.727C125.023 218.727 125.311 219.117 125.311 219.624C125.311 220.13 125.016 220.52 124.527 220.52C124.273 220.52 124.086 220.413 123.961 220.258L123.947 220.424C123.943 220.455 123.926 220.476 123.894 220.476H123.648C123.617 220.476 123.596 220.455 123.596 220.424V218.083C123.596 218.051 123.617 218.03 123.648 218.03H123.921C123.952 218.03 123.973 218.051 123.973 218.083V219.016H124.008C124.102 218.857 124.265 218.727 124.527 218.727ZM124.452 220.174C124.778 220.174 124.946 219.949 124.946 219.62C124.946 219.292 124.778 219.073 124.452 219.073C124.155 219.073 123.969 219.292 123.969 219.62C123.969 219.949 124.155 220.174 124.452 220.174ZM129.134 218.764C129.166 218.764 129.187 218.785 129.187 218.816V220.424C129.187 220.455 129.166 220.476 129.134 220.476H128.876C128.844 220.476 128.827 220.455 128.823 220.424L128.809 220.191H128.775C128.668 220.357 128.483 220.515 128.203 220.515C127.836 220.515 127.578 220.267 127.578 219.809V218.816C127.578 218.785 127.599 218.764 127.63 218.764H127.903C127.934 218.764 127.955 218.785 127.955 218.816V219.753C127.955 220.045 128.109 220.169 128.355 220.169C128.663 220.169 128.809 219.88 128.809 219.804V218.816C128.809 218.785 128.83 218.764 128.862 218.764H129.134ZM132.245 219.48C132.613 219.527 133.042 219.573 133.042 219.994C133.042 220.307 132.783 220.522 132.254 220.522C131.796 220.522 131.487 220.387 131.446 219.98C131.443 219.945 131.466 219.928 131.497 219.928H131.757C131.789 219.928 131.805 219.942 131.808 219.966C131.834 220.142 131.999 220.207 132.247 220.207C132.516 220.207 132.671 220.137 132.671 219.987C132.671 219.828 132.489 219.79 132.245 219.76C131.881 219.713 131.48 219.664 131.48 219.25C131.48 218.94 131.721 218.725 132.219 218.725C132.652 218.725 132.965 218.858 133.005 219.265C133.008 219.3 132.986 219.318 132.954 219.318H132.694C132.662 219.318 132.647 219.304 132.643 219.279C132.617 219.103 132.449 219.038 132.224 219.038C131.992 219.038 131.848 219.105 131.848 219.257C131.848 219.409 132.002 219.449 132.245 219.48ZM136.094 218.402C135.972 218.402 135.876 218.306 135.876 218.186C135.876 218.063 135.972 217.967 136.094 217.967C136.215 217.967 136.311 218.063 136.311 218.186C136.311 218.306 136.215 218.402 136.094 218.402ZM136.804 220.16C136.835 220.16 136.856 220.181 136.856 220.212V220.424C136.856 220.455 136.835 220.476 136.804 220.476H135.299C135.268 220.476 135.247 220.455 135.247 220.424V220.212C135.247 220.181 135.268 220.16 135.299 220.16H135.909V219.08H135.387C135.355 219.08 135.334 219.059 135.334 219.028V218.816C135.334 218.785 135.355 218.764 135.387 218.764H136.234C136.266 218.764 136.286 218.785 136.286 218.816V220.16H136.804ZM140.113 218.725C140.478 218.725 140.732 218.974 140.732 219.431V220.424C140.732 220.455 140.711 220.476 140.679 220.476H140.407C140.375 220.476 140.354 220.455 140.354 220.424V219.487C140.354 219.195 140.204 219.073 139.975 219.073C139.643 219.073 139.5 219.36 139.5 219.437V220.424C139.5 220.455 139.479 220.476 139.448 220.476H139.175C139.144 220.476 139.123 220.455 139.123 220.424V218.816C139.123 218.785 139.144 218.764 139.175 218.764H139.434C139.465 218.764 139.483 218.785 139.486 218.816L139.5 219.047H139.537C139.638 218.883 139.825 218.725 140.113 218.725ZM143.889 218.725C144.406 218.725 144.717 219.122 144.717 219.58C144.717 219.709 144.702 219.774 144.604 219.774H143.383C143.423 220.039 143.645 220.211 143.961 220.211C144.144 220.211 144.272 220.155 144.389 220.066C144.417 220.045 144.438 220.039 144.464 220.066L144.579 220.181C144.606 220.207 144.607 220.232 144.579 220.26C144.413 220.426 144.197 220.522 143.922 220.522C143.377 220.522 143.016 220.127 143.016 219.624C143.016 219.12 143.377 218.725 143.889 218.725ZM143.891 219.049C143.624 219.049 143.425 219.223 143.386 219.501H144.385C144.358 219.227 144.164 219.049 143.891 219.049ZM147.714 219.48C148.083 219.527 148.511 219.573 148.511 219.994C148.511 220.307 148.252 220.522 147.723 220.522C147.265 220.522 146.956 220.387 146.916 219.98C146.912 219.945 146.935 219.928 146.967 219.928H147.227C147.258 219.928 147.274 219.942 147.278 219.966C147.304 220.142 147.468 220.207 147.716 220.207C147.985 220.207 148.141 220.137 148.141 219.987C148.141 219.828 147.959 219.79 147.714 219.76C147.351 219.713 146.949 219.664 146.949 219.25C146.949 218.94 147.19 218.725 147.688 218.725C148.121 218.725 148.434 218.858 148.474 219.265C148.478 219.3 148.455 219.318 148.424 219.318H148.163C148.132 219.318 148.116 219.304 148.113 219.279C148.086 219.103 147.919 219.038 147.693 219.038C147.461 219.038 147.318 219.105 147.318 219.257C147.318 219.409 147.471 219.449 147.714 219.48ZM151.49 219.48C151.859 219.527 152.287 219.573 152.287 219.994C152.287 220.307 152.028 220.522 151.499 220.522C151.041 220.522 150.732 220.387 150.692 219.98C150.688 219.945 150.711 219.928 150.743 219.928H151.003C151.034 219.928 151.05 219.942 151.054 219.966C151.08 220.142 151.244 220.207 151.492 220.207C151.761 220.207 151.917 220.137 151.917 219.987C151.917 219.828 151.735 219.79 151.49 219.76C151.127 219.713 150.725 219.664 150.725 219.25C150.725 218.94 150.966 218.725 151.464 218.725C151.897 218.725 152.21 218.858 152.25 219.265C152.254 219.3 152.231 219.318 152.2 219.318H151.939C151.908 219.318 151.892 219.304 151.889 219.279C151.862 219.103 151.695 219.038 151.469 219.038C151.237 219.038 151.094 219.105 151.094 219.257C151.094 219.409 151.248 219.449 151.49 219.48ZM159.242 218.764C159.273 218.764 159.294 218.785 159.294 218.816V220.424C159.294 220.455 159.273 220.476 159.242 220.476H158.983C158.952 220.476 158.934 220.455 158.931 220.424L158.917 220.191H158.882C158.775 220.357 158.59 220.515 158.31 220.515C157.944 220.515 157.685 220.267 157.685 219.809V218.816C157.685 218.785 157.706 218.764 157.737 218.764H158.01C158.041 218.764 158.062 218.785 158.062 218.816V219.753C158.062 220.045 158.216 220.169 158.462 220.169C158.77 220.169 158.917 219.88 158.917 219.804V218.816C158.917 218.785 158.938 218.764 158.969 218.764H159.242ZM162.57 218.727C163.067 218.727 163.355 219.117 163.355 219.624C163.355 220.13 163.06 220.52 162.57 220.52C162.326 220.52 162.144 220.42 162.017 220.274V221.088C162.017 221.119 161.996 221.14 161.964 221.14H161.692C161.66 221.14 161.639 221.119 161.639 221.088V218.816C161.639 218.785 161.66 218.764 161.692 218.764H161.964C161.996 218.764 162.017 218.785 162.017 218.816V219.016H162.052C162.146 218.857 162.308 218.727 162.57 218.727ZM162.495 220.174C162.822 220.174 162.99 219.949 162.99 219.62C162.99 219.292 162.822 219.073 162.495 219.073C162.198 219.073 162.013 219.292 162.013 219.62C162.013 219.949 162.198 220.174 162.495 220.174ZM170.428 220.188C170.448 220.211 170.451 220.237 170.432 220.26C170.358 220.35 170.168 220.504 169.855 220.504C169.497 220.504 169.16 220.371 169.16 219.811V219.08H168.727C168.695 219.08 168.674 219.059 168.674 219.028V218.816C168.674 218.785 168.695 218.764 168.727 218.764H169.16V218.31C169.16 218.278 169.181 218.257 169.212 218.257H169.485C169.516 218.257 169.537 218.278 169.537 218.31V218.764H170.227C170.259 218.764 170.28 218.785 170.28 218.816V219.028C170.28 219.059 170.259 219.08 170.227 219.08H169.537V219.77C169.537 220.097 169.726 220.165 169.92 220.165C170.065 220.165 170.17 220.102 170.238 220.048C170.262 220.025 170.29 220.027 170.311 220.052L170.428 220.188ZM173.525 220.522C173.027 220.522 172.625 220.127 172.625 219.624C172.625 219.122 173.027 218.725 173.525 218.725C174.021 218.725 174.423 219.122 174.423 219.624C174.423 220.127 174.021 220.522 173.525 220.522ZM173.525 220.17C173.825 220.17 174.058 219.926 174.058 219.624C174.058 219.323 173.825 219.075 173.525 219.075C173.223 219.075 172.99 219.323 172.99 219.624C172.99 219.926 173.223 220.17 173.525 220.17ZM178.344 218.764C178.375 218.764 178.396 218.785 178.396 218.816V220.45C178.396 220.99 177.921 221.168 177.511 221.168C177.231 221.168 176.979 221.089 176.81 220.976C176.784 220.958 176.78 220.932 176.794 220.904L176.882 220.742C176.897 220.714 176.922 220.705 176.951 220.721C177.102 220.801 177.262 220.848 177.483 220.848C177.741 220.848 178.042 220.749 178.042 220.434V220.209C177.912 220.371 177.725 220.485 177.479 220.485C176.995 220.485 176.646 220.088 176.646 219.606C176.646 219.124 176.995 218.727 177.479 218.727C177.715 218.727 177.904 218.837 178.035 218.998L178.045 218.816C178.049 218.785 178.066 218.764 178.098 218.764H178.344ZM177.519 220.139C177.811 220.139 178.024 219.886 178.024 219.603C178.024 219.323 177.811 219.073 177.519 219.073C177.228 219.073 177.011 219.307 177.011 219.603C177.011 219.901 177.228 220.139 177.519 220.139ZM181.554 218.725C182.071 218.725 182.382 219.122 182.382 219.58C182.382 219.709 182.366 219.774 182.268 219.774H181.047C181.087 220.039 181.309 220.211 181.626 220.211C181.809 220.211 181.937 220.155 182.054 220.066C182.082 220.045 182.102 220.039 182.129 220.066L182.244 220.181C182.27 220.207 182.272 220.232 182.244 220.26C182.078 220.426 181.861 220.522 181.587 220.522C181.042 220.522 180.68 220.127 180.68 219.624C180.68 219.12 181.042 218.725 181.554 218.725ZM181.556 219.049C181.288 219.049 181.089 219.223 181.051 219.501H182.05C182.022 219.227 181.828 219.049 181.556 219.049ZM186.307 220.188C186.326 220.211 186.329 220.237 186.31 220.26C186.237 220.35 186.046 220.504 185.734 220.504C185.375 220.504 185.038 220.371 185.038 219.811V219.08H184.605C184.573 219.08 184.553 219.059 184.553 219.028V218.816C184.553 218.785 184.573 218.764 184.605 218.764H185.038V218.31C185.038 218.278 185.059 218.257 185.091 218.257H185.363C185.395 218.257 185.416 218.278 185.416 218.31V218.764H186.106C186.137 218.764 186.158 218.785 186.158 218.816V219.028C186.158 219.059 186.137 219.08 186.106 219.08H185.416V219.77C185.416 220.097 185.604 220.165 185.798 220.165C185.943 220.165 186.048 220.102 186.116 220.048C186.141 220.025 186.169 220.027 186.19 220.052L186.307 220.188ZM189.548 218.725C189.913 218.725 190.167 218.974 190.167 219.431V220.424C190.167 220.455 190.146 220.476 190.114 220.476H189.842C189.81 220.476 189.789 220.455 189.789 220.424V219.487C189.789 219.195 189.639 219.073 189.41 219.073C189.118 219.073 188.973 219.293 188.942 219.4V220.424C188.942 220.455 188.921 220.476 188.889 220.476H188.617C188.585 220.476 188.564 220.455 188.564 220.424V218.083C188.564 218.051 188.585 218.03 188.617 218.03H188.889C188.921 218.03 188.942 218.051 188.942 218.083V219.047H188.97C189.073 218.883 189.26 218.725 189.548 218.725ZM193.324 218.725C193.841 218.725 194.152 219.122 194.152 219.58C194.152 219.709 194.137 219.774 194.039 219.774H192.817C192.858 220.039 193.08 220.211 193.396 220.211C193.579 220.211 193.707 220.155 193.824 220.066C193.852 220.045 193.873 220.039 193.899 220.066L194.014 220.181C194.04 220.207 194.042 220.232 194.014 220.26C193.848 220.426 193.632 220.522 193.357 220.522C192.812 220.522 192.451 220.127 192.451 219.624C192.451 219.12 192.812 218.725 193.324 218.725ZM193.326 219.049C193.059 219.049 192.859 219.223 192.821 219.501H193.82C193.792 219.227 193.598 219.049 193.326 219.049ZM197.451 218.725C197.829 218.725 198.107 218.956 198.107 219.391C198.107 219.424 198.089 219.444 198.056 219.447L197.783 219.486C197.75 219.491 197.731 219.472 197.727 219.438C197.712 219.183 197.554 219.077 197.331 219.077C196.978 219.077 196.814 219.372 196.814 219.477V220.424C196.814 220.455 196.793 220.476 196.761 220.476H196.489C196.457 220.476 196.436 220.455 196.436 220.424V218.816C196.436 218.785 196.457 218.764 196.489 218.764H196.747C196.779 218.764 196.796 218.785 196.8 218.816L196.814 219.047H196.852C196.964 218.883 197.172 218.725 197.451 218.725ZM205.716 218.764C205.755 218.764 205.767 218.785 205.758 218.823L205.337 220.434C205.33 220.462 205.302 220.476 205.274 220.476H204.951C204.923 220.476 204.897 220.462 204.888 220.434L204.577 219.209L204.263 220.434C204.256 220.462 204.228 220.476 204.2 220.476H203.877C203.849 220.476 203.822 220.462 203.814 220.434L203.396 218.823C203.386 218.785 203.4 218.764 203.438 218.764H203.691C203.719 218.764 203.747 218.778 203.754 218.806L204.048 220.045L204.38 218.806C204.389 218.778 204.415 218.764 204.443 218.764H204.708C204.736 218.764 204.764 218.778 204.771 218.806L205.105 220.045L205.4 218.806C205.405 218.778 205.433 218.764 205.463 218.764H205.716ZM208.762 218.402C208.64 218.402 208.544 218.306 208.544 218.186C208.544 218.063 208.64 217.967 208.762 217.967C208.883 217.967 208.979 218.063 208.979 218.186C208.979 218.306 208.883 218.402 208.762 218.402ZM209.471 220.16C209.503 220.16 209.524 220.181 209.524 220.212V220.424C209.524 220.455 209.503 220.476 209.471 220.476H207.967C207.936 220.476 207.915 220.455 207.915 220.424V220.212C207.915 220.181 207.936 220.16 207.967 220.16H208.577V219.08H208.055C208.023 219.08 208.002 219.059 208.002 219.028V218.816C208.002 218.785 208.023 218.764 208.055 218.764H208.902C208.933 218.764 208.954 218.785 208.954 218.816V220.16H209.471ZM213.431 220.188C213.45 220.211 213.454 220.237 213.434 220.26C213.361 220.35 213.171 220.504 212.858 220.504C212.5 220.504 212.163 220.371 212.163 219.811V219.08H211.729C211.698 219.08 211.677 219.059 211.677 219.028V218.816C211.677 218.785 211.698 218.764 211.729 218.764H212.163V218.31C212.163 218.278 212.184 218.257 212.215 218.257H212.488C212.519 218.257 212.54 218.278 212.54 218.31V218.764H213.23C213.261 218.764 213.282 218.785 213.282 218.816V219.028C213.282 219.059 213.261 219.08 213.23 219.08H212.54V219.77C212.54 220.097 212.729 220.165 212.923 220.165C213.068 220.165 213.172 220.102 213.241 220.048C213.265 220.025 213.293 220.027 213.314 220.052L213.431 220.188ZM216.672 218.725C217.038 218.725 217.291 218.974 217.291 219.431V220.424C217.291 220.455 217.27 220.476 217.238 220.476H216.966C216.934 220.476 216.914 220.455 216.914 220.424V219.487C216.914 219.195 216.763 219.073 216.534 219.073C216.243 219.073 216.098 219.293 216.066 219.4V220.424C216.066 220.455 216.045 220.476 216.014 220.476H215.741C215.71 220.476 215.689 220.455 215.689 220.424V218.083C215.689 218.051 215.71 218.03 215.741 218.03H216.014C216.045 218.03 216.066 218.051 216.066 218.083V219.047H216.094C216.197 218.883 216.384 218.725 216.672 218.725ZM223.571 218.402C223.449 218.402 223.353 218.306 223.353 218.186C223.353 218.063 223.449 217.967 223.571 217.967C223.692 217.967 223.788 218.063 223.788 218.186C223.788 218.306 223.692 218.402 223.571 218.402ZM224.28 220.16C224.312 220.16 224.333 220.181 224.333 220.212V220.424C224.333 220.455 224.312 220.476 224.28 220.476H222.776C222.745 220.476 222.724 220.455 222.724 220.424V220.212C222.724 220.181 222.745 220.16 222.776 220.16H223.386V219.08H222.864C222.832 219.08 222.811 219.059 222.811 219.028V218.816C222.811 218.785 222.832 218.764 222.864 218.764H223.711C223.742 218.764 223.763 218.785 223.763 218.816V220.16H224.28ZM227.312 219.48C227.681 219.527 228.109 219.573 228.109 219.994C228.109 220.307 227.85 220.522 227.321 220.522C226.863 220.522 226.554 220.387 226.514 219.98C226.51 219.945 226.533 219.928 226.565 219.928H226.825C226.856 219.928 226.872 219.942 226.875 219.966C226.902 220.142 227.066 220.207 227.314 220.207C227.583 220.207 227.739 220.137 227.739 219.987C227.739 219.828 227.557 219.79 227.312 219.76C226.949 219.713 226.547 219.664 226.547 219.25C226.547 218.94 226.788 218.725 227.286 218.725C227.719 218.725 228.032 218.858 228.072 219.265C228.076 219.3 228.053 219.318 228.022 219.318H227.761C227.73 219.318 227.714 219.304 227.711 219.279C227.684 219.103 227.517 219.038 227.291 219.038C227.059 219.038 226.916 219.105 226.916 219.257C226.916 219.409 227.069 219.449 227.312 219.48ZM232.016 220.188C232.035 220.211 232.039 220.237 232.02 220.26C231.946 220.35 231.756 220.504 231.443 220.504C231.085 220.504 230.748 220.371 230.748 219.811V219.08H230.314C230.283 219.08 230.262 219.059 230.262 219.028V218.816C230.262 218.785 230.283 218.764 230.314 218.764H230.748V218.31C230.748 218.278 230.769 218.257 230.8 218.257H231.073C231.104 218.257 231.125 218.278 231.125 218.31V218.764H231.815C231.847 218.764 231.868 218.785 231.868 218.816V219.028C231.868 219.059 231.847 219.08 231.815 219.08H231.125V219.77C231.125 220.097 231.314 220.165 231.508 220.165C231.653 220.165 231.757 220.102 231.826 220.048C231.85 220.025 231.878 220.027 231.899 220.052L232.016 220.188ZM235.934 219.342C235.965 219.342 235.986 219.363 235.986 219.395V219.604C235.986 219.636 235.965 219.657 235.934 219.657H234.291C234.26 219.657 234.239 219.636 234.239 219.604V219.395C234.239 219.363 234.26 219.342 234.291 219.342H235.934ZM239.809 220.16C239.841 220.16 239.862 220.181 239.862 220.212V220.424C239.862 220.455 239.841 220.476 239.809 220.476H238.288C238.256 220.476 238.235 220.455 238.235 220.424V220.212C238.235 220.181 238.256 220.16 238.288 220.16H238.897V218.346H238.328C238.296 218.346 238.275 218.325 238.275 218.294V218.083C238.275 218.051 238.296 218.03 238.328 218.03H239.222C239.254 218.03 239.275 218.051 239.275 218.083V220.16H239.809ZM242.906 218.402C242.783 218.402 242.687 218.306 242.687 218.186C242.687 218.063 242.783 217.967 242.906 217.967C243.026 217.967 243.122 218.063 243.122 218.186C243.122 218.306 243.026 218.402 242.906 218.402ZM243.615 220.16C243.647 220.16 243.667 220.181 243.667 220.212V220.424C243.667 220.455 243.647 220.476 243.615 220.476H242.111C242.079 220.476 242.058 220.455 242.058 220.424V220.212C242.058 220.181 242.079 220.16 242.111 220.16H242.721V219.08H242.198C242.167 219.08 242.146 219.059 242.146 219.028V218.816C242.146 218.785 242.167 218.764 242.198 218.764H243.046C243.077 218.764 243.098 218.785 243.098 218.816V220.16H243.615ZM247.55 218.764C247.582 218.764 247.603 218.785 247.603 218.816V219.024C247.603 219.056 247.582 219.077 247.55 219.077H246.713V220.424C246.713 220.455 246.692 220.476 246.661 220.476H246.388C246.357 220.476 246.336 220.455 246.336 220.424V219.077H245.89C245.859 219.077 245.838 219.056 245.838 219.024V218.816C245.838 218.785 245.859 218.764 245.89 218.764H246.336V218.593C246.336 218.048 246.699 217.904 247.103 217.904C247.307 217.904 247.585 217.943 247.585 218.018V218.215C247.585 218.25 247.561 218.271 247.522 218.264C247.48 218.257 247.386 218.224 247.188 218.224C246.933 218.224 246.713 218.299 246.713 218.628V218.764H247.55ZM251.492 220.188C251.511 220.211 251.515 220.237 251.496 220.26C251.422 220.35 251.232 220.504 250.919 220.504C250.561 220.504 250.224 220.371 250.224 219.811V219.08H249.79C249.759 219.08 249.738 219.059 249.738 219.028V218.816C249.738 218.785 249.759 218.764 249.79 218.764H250.224V218.31C250.224 218.278 250.245 218.257 250.276 218.257H250.549C250.58 218.257 250.601 218.278 250.601 218.31V218.764H251.291C251.323 218.764 251.344 218.785 251.344 218.816V219.028C251.344 219.059 251.323 219.08 251.291 219.08H250.601V219.77C250.601 220.097 250.79 220.165 250.984 220.165C251.129 220.165 251.234 220.102 251.302 220.048C251.326 220.025 251.354 220.027 251.375 220.052L251.492 220.188Z" fill="#747474"/>
</g>
<defs>
<linearGradient id="paint0_linear_290_290" x1="56.0002" y1="35.6005" x2="71.8745" y2="35.6005" gradientUnits="userSpaceOnUse">
<stop stop-color="#8F5E25"/>
<stop offset="0.5" stop-color="#FBF4A1"/>
<stop offset="1" stop-color="#8F5E25"/>
</linearGradient>
<linearGradient id="paint1_linear_290_290" x1="32.0393" y1="1.24976" x2="227.322" y2="1.24976" gradientUnits="userSpaceOnUse">
<stop stop-color="#8F5E25"/>
<stop offset="0.5" stop-color="#FBF4A1"/>
<stop offset="1" stop-color="#8F5E25"/>
</linearGradient>
<linearGradient id="paint2_linear_290_290" x1="7.34595" y1="2.90894" x2="315.931" y2="2.90894" gradientUnits="userSpaceOnUse">
<stop stop-color="#FFD064"/>
<stop offset="0.5" stop-color="#FFDF93"/>
<stop offset="1" stop-color="#FFD064"/>
</linearGradient>
<linearGradient id="paint3_linear_290_290" x1="36.8313" y1="153.498" x2="327.112" y2="153.498" gradientUnits="userSpaceOnUse">
<stop stop-color="#8F5E25"/>
<stop offset="0.5" stop-color="#FBF4A1"/>
<stop offset="1" stop-color="#8F5E25"/>
</linearGradient>
<linearGradient id="paint4_linear_290_290" x1="24.5513" y1="61.8394" x2="319.572" y2="61.8394" gradientUnits="userSpaceOnUse">
<stop stop-color="#8F5E25"/>
<stop offset="0.5" stop-color="#FBF4A1"/>
<stop offset="1" stop-color="#8F5E25"/>
</linearGradient>
</defs>
</svg>
