<svg xmlns="http://www.w3.org/2000/svg" width="215" height="176" viewBox="0 0 215 176" fill="none">
  <path d="M49.4647 54.3654L77.8254 59.1842C86.2288 60.611 94.8691 58.8356 101.99 54.2189C109.111 49.6022 114.177 42.4907 116.16 34.33C118.089 26.3984 122.933 19.4499 129.759 14.824C136.585 10.1982 144.91 8.22239 153.129 9.27754L185.788 13.463C194.079 14.534 201.666 18.6097 207.064 24.893C212.462 31.1763 215.284 39.2152 214.977 47.4372L213.427 88.0312C213.256 92.4954 212.167 96.879 210.224 100.917C208.281 104.954 205.525 108.562 202.124 111.521C198.722 114.48 194.746 116.729 190.435 118.132C186.125 119.534 181.569 120.062 177.046 119.681L148.433 117.258C143.113 116.808 137.761 117.614 132.821 119.609C127.882 121.605 123.497 124.731 120.033 128.73L98.6467 153.408C93.8446 158.949 87.3151 162.772 80.0748 164.282C72.8345 165.793 65.29 164.904 58.616 161.757L19.0444 143.098C11.4612 139.521 5.52008 133.271 2.39784 125.588C-0.724409 117.905 -0.800084 109.348 2.1858 101.612L12.395 75.1772C15.1573 68.0131 20.3673 62.018 27.1311 58.2207C33.895 54.4233 41.7911 53.0602 49.4647 54.3654Z" fill="url(#paint0_radial_3746_599)"/>
  <path d="M194.356 12.8347L189.614 12.0358C190.733 12.2125 191.803 12.6179 192.758 13.2267C193.713 13.8355 194.533 14.6347 195.165 15.5743C195.798 16.5139 196.23 17.5738 196.434 18.6878C196.639 19.8018 196.611 20.946 196.354 22.0491L164.531 164.823C163.995 167.12 162.609 169.13 160.652 170.447C158.695 171.764 156.312 172.292 153.981 171.923L158.723 172.722C161.054 173.091 163.438 172.564 165.396 171.247C167.354 169.93 168.741 167.921 169.279 165.623L201.093 22.8665C201.354 21.7624 201.384 20.6162 201.182 19.4998C200.979 18.3834 200.548 17.3209 199.915 16.379C199.283 15.4371 198.462 14.6361 197.506 14.0262C196.549 13.4163 195.476 13.0106 194.356 12.8347Z" fill="#99A8BA"/>
  <path opacity="0.1" d="M194.356 12.8347L189.614 12.0358C190.733 12.2125 191.803 12.6179 192.758 13.2267C193.713 13.8355 194.533 14.6347 195.165 15.5743C195.798 16.5139 196.23 17.5738 196.434 18.6878C196.639 19.8018 196.611 20.946 196.354 22.0491L164.531 164.823C163.995 167.12 162.609 169.13 160.652 170.447C158.695 171.764 156.312 172.292 153.981 171.923L158.723 172.722C161.054 173.091 163.438 172.564 165.396 171.247C167.354 169.93 168.741 167.921 169.279 165.623L201.093 22.8665C201.354 21.7624 201.384 20.6162 201.182 19.4998C200.979 18.3834 200.548 17.3209 199.915 16.379C199.283 15.4371 198.462 14.6361 197.506 14.0262C196.549 13.4163 195.476 13.0106 194.356 12.8347Z" fill="white"/>
  <path d="M157.309 172.497L99.2115 162.708C98.0919 162.533 97.0205 162.129 96.0644 161.521C95.1083 160.912 94.2882 160.113 93.6554 159.173C93.0226 158.233 92.5908 157.172 92.387 156.058C92.1832 154.943 92.2119 153.798 92.4712 152.695L124.285 9.93841C124.831 7.6452 126.22 5.64146 128.176 4.32597C130.132 3.01048 132.511 2.4797 134.841 2.83926L192.913 12.6236C194.032 12.8003 195.102 13.2057 196.058 13.8145C197.013 14.4233 197.832 15.2225 198.465 16.1621C199.097 17.1017 199.529 18.1616 199.734 19.2756C199.938 20.3896 199.911 21.5339 199.654 22.6369L167.86 165.384C167.327 167.684 165.942 169.697 163.984 171.017C162.026 172.336 159.641 172.865 157.309 172.497Z" fill="#99A8BA"/>
  <path opacity="0.4" d="M157.309 172.497L99.2115 162.708C98.0919 162.533 97.0205 162.129 96.0644 161.521C95.1083 160.912 94.2882 160.113 93.6554 159.173C93.0226 158.233 92.5908 157.172 92.387 156.058C92.1832 154.943 92.2119 153.798 92.4712 152.695L124.285 9.93841C124.831 7.6452 126.22 5.64146 128.176 4.32597C130.132 3.01048 132.511 2.4797 134.841 2.83926L192.913 12.6236C194.032 12.8003 195.102 13.2057 196.058 13.8145C197.013 14.4233 197.832 15.2225 198.465 16.1621C199.097 17.1017 199.529 18.1616 199.734 19.2756C199.938 20.3896 199.911 21.5339 199.654 22.6369L167.86 165.384C167.327 167.684 165.942 169.697 163.984 171.017C162.026 172.336 159.641 172.865 157.309 172.497Z" fill="white"/>
  <path d="M134.583 5.61731C132.96 5.36469 131.302 5.73465 129.941 6.65304C128.58 7.57144 127.616 8.9704 127.242 10.5695L95.4274 153.332C95.2496 154.063 95.2259 154.822 95.3578 155.563C95.4897 156.303 95.7743 157.007 96.1935 157.632C96.6126 158.256 97.1572 158.786 97.7925 159.188C98.4278 159.59 99.1398 159.856 99.8833 159.968L157.98 169.756C159.599 170.01 161.254 169.644 162.614 168.73C163.974 167.816 164.94 166.423 165.317 164.829L197.137 22.0731C197.313 21.3418 197.335 20.582 197.202 19.8417C197.069 19.1014 196.784 18.3967 196.365 17.7723C195.945 17.1479 195.401 16.6174 194.766 16.2143C194.131 15.8112 193.419 15.5443 192.676 15.4305L134.583 5.61731Z" fill="url(#paint1_linear_3746_599)"/>
  <path d="M140.46 148.713C140.012 150.653 138.843 152.35 137.192 153.462C135.54 154.573 133.529 155.017 131.563 154.703C130.62 154.555 129.718 154.214 128.913 153.701C128.109 153.188 127.419 152.514 126.886 151.722C126.354 150.93 125.992 150.036 125.821 149.097C125.65 148.158 125.676 147.194 125.895 146.266C126.346 144.33 127.513 142.637 129.161 141.527C130.809 140.416 132.816 139.971 134.779 140.28C135.722 140.427 136.625 140.768 137.43 141.28C138.236 141.792 138.927 142.465 139.46 143.257C139.993 144.049 140.357 144.942 140.529 145.881C140.702 146.82 140.678 147.784 140.46 148.713Z" fill="white"/>
  <path d="M137.791 147.585C135.898 145.725 131.427 144.972 128.869 146.081C128.445 146.084 128.034 146.23 127.704 146.495C127.374 146.761 127.143 147.131 127.05 147.544C126.837 148.504 130.851 149.18 131.064 148.22C131.152 147.83 131.097 147.42 130.91 147.066C132.47 146.999 134.026 147.261 135.479 147.836C135.155 148.093 134.929 148.453 134.837 148.856C134.625 149.816 138.639 150.492 138.852 149.533C138.944 149.134 138.887 148.716 138.691 148.357C138.496 147.998 138.176 147.723 137.791 147.585Z" fill="#99A8BA"/>
  <path opacity="0.2" d="M137.791 147.585C135.898 145.725 131.427 144.972 128.869 146.081C128.445 146.084 128.034 146.23 127.704 146.495C127.374 146.761 127.143 147.131 127.05 147.544C126.837 148.504 130.851 149.18 131.064 148.22C131.152 147.83 131.097 147.42 130.91 147.066C132.47 146.999 134.026 147.261 135.479 147.836C135.155 148.093 134.929 148.453 134.837 148.856C134.625 149.816 138.639 150.492 138.852 149.533C138.944 149.134 138.887 148.716 138.691 148.357C138.496 147.998 138.176 147.723 137.791 147.585Z" fill="black"/>
  <path d="M160.099 63.7267C166.346 59.403 168.084 51.0914 163.981 45.1621C159.877 39.2328 151.486 37.9312 145.239 42.2548C138.991 46.5785 137.253 54.8901 141.357 60.8194C145.46 66.7487 153.851 68.0504 160.099 63.7267Z" fill="white"/>
  <path d="M159.535 62.9112C165.305 58.9178 166.911 51.2421 163.122 45.7671C159.333 40.2922 151.584 39.0912 145.813 43.0847C140.043 47.0782 138.437 54.7539 142.226 60.2288C146.015 65.7038 153.765 66.9047 159.535 62.9112Z" fill="#99A8BA"/>
  <path opacity="0.7" d="M159.535 62.9112C165.305 58.9178 166.911 51.2421 163.122 45.7671C159.333 40.2922 151.584 39.0912 145.813 43.0847C140.043 47.0782 138.437 54.7539 142.226 60.2288C146.015 65.7038 153.765 66.9047 159.535 62.9112Z" fill="white"/>
  <path opacity="0.7" d="M149.974 65.0912C152.037 65.4193 154.148 65.2506 156.133 64.599C158.117 63.9475 159.918 62.8318 161.385 61.3448C159.075 58.5713 153.094 59.821 149.994 60.0026C147.637 60.1444 145.611 61.5153 144.38 62.576C145.992 63.8896 147.921 64.7568 149.974 65.0912Z" fill="white"/>
  <path d="M149.898 46.5371C149.898 46.5371 146.601 44.8782 144.515 47.3993L147.209 47.2889C147.209 47.2889 144.88 48.355 146.292 52.2073C146.292 52.2073 146.287 49.0359 148.667 48.8027C151.046 48.5694 149.898 46.5371 149.898 46.5371Z" fill="#263238"/>
  <path opacity="0.3" d="M149.898 46.5371C149.898 46.5371 146.601 44.8782 144.515 47.3993L147.209 47.2889C147.209 47.2889 144.88 48.355 146.292 52.2073C146.292 52.2073 146.287 49.0359 148.667 48.8027C151.046 48.5694 149.898 46.5371 149.898 46.5371Z" fill="black"/>
  <path d="M148.998 61.5788C149.179 61.0184 149.54 60.5332 150.024 60.1979C150.134 59.6666 150.052 59.1134 149.792 58.637L155.43 55.5096C155.279 57.5324 155.169 59.1307 156.066 59.9033C155.011 60.8544 153.08 62.5708 150.738 62.9943C148.397 63.4178 148.754 62.4634 148.998 61.5788Z" fill="#FFA8A7"/>
  <path opacity="0.1" d="M150.029 59.9834C153.288 60.0251 154.726 56.6086 154.726 56.6086L151.523 57.6669L149.774 58.6404C149.996 59.0508 150.085 59.52 150.029 59.9834Z" fill="black"/>
  <path d="M156.414 50.9513C156.097 53.9987 155.806 56.0675 153.835 57.4477C149.91 60.1978 147.691 58.6509 146.996 55.6613C146.386 52.9587 147.01 48.4284 150.306 47.0814C153.602 45.7344 156.732 47.8977 156.414 50.9513Z" fill="#FFA8A7"/>
  <path d="M149.933 51.8189C149.933 51.5526 150.085 51.3308 150.258 51.3219C150.43 51.3129 150.578 51.5281 150.577 51.7943C150.577 52.0605 150.432 52.2834 150.253 52.2913C150.074 52.2992 149.932 52.0851 149.933 51.8189Z" fill="#263238"/>
  <path d="M147.772 51.9619C147.771 52.2281 147.62 52.4499 147.461 52.4486C147.303 52.4473 147.141 52.2424 147.148 51.9772C147.154 51.712 147.293 51.4882 147.458 51.4905C147.622 51.4929 147.778 51.6967 147.772 51.9619Z" fill="#263238"/>
  <path d="M148.705 52.1443L148.696 54.3812C148.433 54.4431 148.162 54.4638 147.893 54.4425C147.855 54.4379 147.818 54.4254 147.785 54.4058C147.752 54.3863 147.724 54.3601 147.702 54.3289C147.679 54.2977 147.664 54.2622 147.656 54.2247C147.649 54.1872 147.649 54.1485 147.657 54.1111C147.667 54.0512 147.697 53.9961 147.741 53.9539C148.171 53.4154 148.498 52.8019 148.705 52.1443Z" fill="#A02724"/>
  <path d="M152.041 51.0135C152.067 51.0168 152.094 51.0099 152.114 50.9941C152.131 50.9833 152.146 50.969 152.157 50.9523C152.168 50.9356 152.175 50.9168 152.178 50.8971C152.182 50.8773 152.181 50.8571 152.176 50.8377C152.171 50.8183 152.162 50.8002 152.15 50.7845C152 50.5838 151.803 50.423 151.577 50.3163C151.351 50.2096 151.101 50.1602 150.851 50.1726C150.809 50.1746 150.77 50.1929 150.741 50.2235C150.712 50.2541 150.696 50.2947 150.697 50.3368C150.702 50.3769 150.722 50.4137 150.753 50.44C150.783 50.4663 150.823 50.4802 150.863 50.4789C151.06 50.4753 151.255 50.5183 151.433 50.6043C151.61 50.6904 151.764 50.8171 151.883 50.9742C151.902 50.9967 151.927 51.0127 151.956 51.0198C151.984 51.0269 152.014 51.0247 152.041 51.0135Z" fill="#263238"/>
  <path d="M146.702 51.2744C146.729 51.2716 146.754 51.2631 146.777 51.2494C146.8 51.2358 146.82 51.2174 146.836 51.1955C146.941 51.0226 147.085 50.8762 147.256 50.7677C147.427 50.6591 147.621 50.5912 147.823 50.5691C147.865 50.5658 147.904 50.5474 147.933 50.5175C147.963 50.4875 147.981 50.4479 147.983 50.406C147.981 50.3652 147.963 50.3268 147.934 50.2984C147.905 50.27 147.866 50.2536 147.825 50.2525C147.57 50.278 147.324 50.3621 147.106 50.4981C146.889 50.6341 146.706 50.8184 146.571 51.0367C146.558 51.052 146.549 51.0696 146.544 51.0885C146.539 51.1075 146.537 51.1272 146.54 51.1467C146.543 51.1662 146.549 51.1849 146.559 51.2017C146.57 51.2185 146.583 51.233 146.599 51.2444C146.63 51.2645 146.665 51.275 146.702 51.2744Z" fill="#263238"/>
  <path d="M147.546 55.4498C148.967 55.1369 150.413 54.956 151.867 54.9095C151.686 55.4693 151.328 55.955 150.847 56.2928C150.365 56.6305 149.787 56.8019 149.199 56.7809C149.011 56.8153 148.819 56.8111 148.633 56.7685C148.447 56.726 148.272 56.646 148.118 56.5334C147.965 56.4208 147.836 56.2781 147.739 56.1138C147.642 55.9496 147.58 55.7674 147.556 55.5783C147.55 55.5392 147.551 55.495 147.546 55.4498Z" fill="#263238"/>
  <path d="M149.935 55.9854C149.3 55.9951 148.683 56.1961 148.164 56.562C148.478 56.7352 148.837 56.809 149.193 56.7736C149.826 56.7682 150.442 56.5687 150.957 56.202C150.648 56.0243 150.29 55.9485 149.935 55.9854Z" fill="#A02724"/>
  <path d="M147.69 55.4169C147.726 55.5303 147.792 55.6314 147.882 55.7083C147.973 55.7853 148.083 55.835 148.201 55.8516C149.149 55.7802 150.091 55.6379 151.018 55.4258C151.17 55.4032 151.315 55.3449 151.44 55.2558C151.565 55.1667 151.667 55.0493 151.739 54.9131C150.379 54.9806 149.026 55.149 147.69 55.4169Z" fill="white"/>
  <path d="M155.159 54.5954C155.159 54.5954 151.643 51.866 154.219 49.7508C156.795 47.6357 158.308 50.7758 157.638 52.5654C157.433 53.0873 157.097 53.548 156.663 53.9033C156.229 54.2587 155.711 54.497 155.159 54.5954Z" fill="#263238"/>
  <path opacity="0.2" d="M155.159 54.5954C155.159 54.5954 151.643 51.866 154.219 49.7508C156.795 47.6357 158.308 50.7758 157.638 52.5654C157.433 53.0873 157.097 53.548 156.663 53.9033C156.229 54.2587 155.711 54.497 155.159 54.5954Z" fill="black"/>
  <path d="M157.607 54.1832C157.143 54.8936 156.427 55.4026 155.604 55.6086C154.513 55.875 154.047 54.915 154.415 53.937C154.748 53.0484 155.718 51.8484 156.779 52.0209C156.96 52.0526 157.132 52.121 157.285 52.2221C157.438 52.3231 157.569 52.4545 157.669 52.6081C157.769 52.7618 157.837 52.9344 157.868 53.1152C157.898 53.2961 157.891 53.4813 157.848 53.6594C157.803 53.8484 157.722 54.0265 157.607 54.1832Z" fill="#FFA8A7"/>
  <path d="M152.086 44.4959C152.086 44.4959 148.04 42.1593 147.302 45.4527C146.563 48.7462 152.601 51.222 154.932 51.5006C157.263 51.7792 158.115 52.6709 158.115 52.6709C158.115 52.6709 158.739 49.9797 158.216 48.7565C157.693 47.5333 158.024 44.0634 152.086 44.4959Z" fill="#263238"/>
  <path d="M151.835 19.5895C151.935 19.1073 152.22 18.6835 152.629 18.4096C153.038 18.1356 153.538 18.0336 154.022 18.1254C154.317 18.1664 154.594 18.2886 154.823 18.4784C155.052 18.6682 155.224 18.918 155.319 19.1999L155.063 19.2899C154.983 19.0474 154.835 18.8326 154.638 18.6703C154.441 18.508 154.202 18.405 153.949 18.373C153.535 18.2964 153.107 18.3852 152.758 18.6205C152.409 18.8557 152.166 19.2186 152.082 19.6311C152.03 19.8266 152.02 20.0309 152.053 20.2305C152.087 20.43 152.162 20.6201 152.275 20.788C152.388 20.956 152.535 21.0978 152.708 21.2041C152.88 21.3104 153.073 21.3787 153.273 21.4044C153.533 21.4513 153.801 21.4289 154.05 21.3395C154.299 21.2501 154.52 21.0968 154.691 20.895L154.896 21.0691C154.689 21.3016 154.427 21.4774 154.133 21.58C153.84 21.6826 153.525 21.7084 153.218 21.6551C152.986 21.6222 152.763 21.5407 152.565 21.4159C152.366 21.2911 152.196 21.1259 152.066 20.9311C151.935 20.7362 151.847 20.516 151.807 20.2848C151.768 20.0537 151.777 19.8168 151.835 19.5895Z" fill="white"/>
  <path d="M158.249 19.9092L157.704 22.3538L157.452 22.3112L157.576 21.7614C157.431 21.9308 157.245 22.0597 157.035 22.1355C156.826 22.2114 156.6 22.2316 156.381 22.1942C156.211 22.1715 156.049 22.1134 155.904 22.0237C155.758 21.9339 155.634 21.8145 155.538 21.6732C155.442 21.532 155.377 21.3721 155.347 21.2039C155.317 21.0358 155.323 20.8633 155.365 20.6977C155.44 20.3548 155.644 20.0538 155.934 19.8563C156.224 19.6588 156.579 19.5798 156.926 19.6354C157.138 19.6655 157.338 19.7558 157.501 19.8956C157.664 20.0354 157.784 20.219 157.846 20.4245L157.97 19.8747L158.249 19.9092ZM157.727 21.0894C157.76 20.9561 157.765 20.8173 157.742 20.682C157.718 20.5466 157.666 20.4177 157.59 20.3034C157.514 20.1892 157.415 20.092 157.299 20.0182C157.183 19.9445 157.053 19.8957 156.917 19.8749C156.634 19.8284 156.344 19.8917 156.106 20.052C155.868 20.2123 155.7 20.4574 155.637 20.7372C155.607 20.8707 155.606 21.0089 155.632 21.143C155.659 21.2772 155.713 21.4043 155.791 21.5165C155.87 21.6286 155.97 21.7233 156.087 21.7945C156.204 21.8657 156.334 21.9119 156.47 21.9301C156.746 21.9728 157.029 21.9101 157.262 21.7544C157.495 21.5988 157.661 21.3615 157.727 21.0894Z" fill="white"/>
  <path d="M159.26 18.9128L159.507 18.9544L158.709 22.5232L158.463 22.4816L159.26 18.9128Z" fill="white"/>
  <path d="M160.265 19.0823L160.512 19.1238L159.714 22.6926L159.468 22.6511L160.265 19.0823Z" fill="white"/>
  <path d="M161.122 19.5751C161.136 19.5243 161.169 19.4806 161.214 19.4519C161.258 19.4233 161.311 19.4117 161.364 19.4193C161.388 19.4235 161.412 19.4326 161.433 19.4461C161.455 19.4597 161.473 19.4773 161.487 19.4981C161.501 19.5188 161.511 19.5422 161.516 19.5669C161.521 19.5915 161.521 19.617 161.516 19.6416C161.505 19.6935 161.474 19.739 161.43 19.7692C161.386 19.7994 161.332 19.812 161.28 19.8047C161.254 19.8012 161.229 19.7924 161.206 19.7786C161.184 19.7649 161.165 19.7467 161.15 19.725C161.135 19.7034 161.125 19.6789 161.12 19.653C161.115 19.6272 161.116 19.6007 161.122 19.5751ZM161.025 20.3768L161.271 20.4184L160.726 22.863L160.48 22.8214L161.025 20.3768Z" fill="white"/>
  <path d="M163.907 21.8201L163.568 23.3419L163.315 23.2993L163.654 21.7775C163.692 21.6841 163.707 21.5829 163.698 21.4825C163.689 21.382 163.655 21.2854 163.6 21.2008C163.545 21.1161 163.471 21.046 163.383 20.9965C163.295 20.9469 163.196 20.9193 163.096 20.9161C162.97 20.8935 162.841 20.8975 162.716 20.9277C162.592 20.9579 162.476 21.0137 162.374 21.0915C162.273 21.1693 162.189 21.2674 162.127 21.3795C162.066 21.4917 162.029 21.6154 162.018 21.7427L161.731 23.0323L161.484 22.9908L162.029 20.5461L162.276 20.5877L162.197 21.0563C162.311 20.9073 162.465 20.7935 162.641 20.7278C162.817 20.6621 163.008 20.6473 163.192 20.6849C163.319 20.7011 163.441 20.7453 163.549 20.8142C163.657 20.8831 163.749 20.9752 163.817 21.0837C163.886 21.1922 163.929 21.3145 163.945 21.4418C163.96 21.5691 163.947 21.6983 163.907 21.8201Z" fill="white"/>
  <path d="M167.246 21.425L166.726 23.7535C166.653 24.0742 166.456 24.3529 166.178 24.5293C165.9 24.7056 165.564 24.7654 165.242 24.6956C165.01 24.6784 164.788 24.5924 164.604 24.4485C164.421 24.3047 164.284 24.1095 164.212 23.8879L164.461 23.803C164.517 23.9824 164.628 24.1396 164.779 24.2525C164.929 24.3654 165.111 24.4284 165.299 24.4326C165.426 24.4671 165.559 24.475 165.689 24.4556C165.819 24.4362 165.944 24.39 166.055 24.32C166.167 24.2499 166.262 24.1575 166.336 24.0486C166.41 23.9397 166.46 23.8167 166.484 23.6873L166.561 23.231C166.418 23.4034 166.232 23.5345 166.022 23.6106C165.812 23.6867 165.585 23.705 165.366 23.6637C165.196 23.6421 165.033 23.5846 164.887 23.4951C164.741 23.4055 164.616 23.2861 164.52 23.1446C164.424 23.0031 164.359 22.8428 164.33 22.6743C164.3 22.5058 164.307 22.3329 164.349 22.1672C164.424 21.8236 164.627 21.5217 164.918 21.324C165.208 21.1262 165.564 21.0478 165.911 21.105C166.124 21.1329 166.325 21.2224 166.488 21.3625C166.652 21.5026 166.77 21.6874 166.83 21.8941L166.927 21.3206L167.246 21.425ZM166.723 22.6053C166.756 22.4719 166.761 22.3332 166.738 22.1978C166.714 22.0625 166.663 21.9336 166.586 21.8193C166.51 21.705 166.411 21.6079 166.295 21.5341C166.179 21.4603 166.049 21.4115 165.913 21.3908C165.63 21.3443 165.34 21.4076 165.102 21.5679C164.864 21.7281 164.696 21.9732 164.633 22.2531C164.6 22.3869 164.595 22.5262 164.619 22.6621C164.643 22.7979 164.695 22.9272 164.772 23.0417C164.849 23.1562 164.949 23.2533 165.065 23.3268C165.182 23.4004 165.313 23.4486 165.449 23.4686C165.732 23.5149 166.021 23.4513 166.258 23.2907C166.495 23.1301 166.662 22.8848 166.723 22.6053Z" fill="white"/>
  <path d="M167.426 23.8144C167.44 23.755 167.475 23.7029 167.526 23.6689C167.576 23.635 167.638 23.6217 167.698 23.6319C167.727 23.6367 167.754 23.6472 167.778 23.663C167.803 23.6787 167.824 23.6992 167.84 23.7234C167.856 23.7475 167.867 23.7746 167.872 23.8031C167.877 23.8316 167.877 23.8609 167.87 23.8892C167.857 23.9487 167.821 24.0007 167.771 24.0347C167.72 24.0687 167.659 24.0819 167.599 24.0717C167.57 24.0678 167.542 24.0578 167.517 24.0424C167.492 24.0269 167.471 24.0063 167.454 23.982C167.438 23.9576 167.427 23.9301 167.422 23.9012C167.417 23.8723 167.419 23.8427 167.426 23.8144Z" fill="white"/>
  <path d="M168.475 23.991C168.488 23.9315 168.524 23.8794 168.574 23.8455C168.625 23.8115 168.686 23.7983 168.746 23.8085C168.775 23.8132 168.802 23.8238 168.827 23.8395C168.851 23.8553 168.872 23.8758 168.888 23.8999C168.904 23.924 168.915 23.9511 168.921 23.9797C168.926 24.0082 168.925 24.0375 168.919 24.0658C168.905 24.1252 168.87 24.1773 168.819 24.2113C168.769 24.2452 168.707 24.2585 168.647 24.2483C168.618 24.2435 168.591 24.2329 168.567 24.2172C168.542 24.2015 168.521 24.1809 168.505 24.1568C168.489 24.1327 168.478 24.1056 168.473 24.0771C168.468 24.0485 168.468 24.0192 168.475 23.991Z" fill="white"/>
  <path d="M169.529 24.1685C169.542 24.1091 169.578 24.057 169.628 24.023C169.679 23.9891 169.741 23.9758 169.801 23.986C169.829 23.9908 169.857 24.0014 169.881 24.0171C169.905 24.0328 169.926 24.0534 169.942 24.0775C169.958 24.1016 169.969 24.1287 169.975 24.1572C169.98 24.1858 169.979 24.2151 169.973 24.2433C169.96 24.3028 169.924 24.3549 169.873 24.3888C169.823 24.4228 169.761 24.436 169.701 24.4258C169.672 24.422 169.644 24.412 169.619 24.3965C169.594 24.381 169.573 24.3604 169.557 24.3361C169.541 24.3117 169.53 24.2842 169.525 24.2553C169.52 24.2264 169.521 24.1969 169.529 24.1685Z" fill="white"/>
  <path d="M118.247 94.666L117.563 94.5507L117.37 95.4313L117.204 95.4033L117.678 93.2638L118.535 93.4082C118.699 93.4358 118.845 93.5272 118.941 93.6623C119.037 93.7974 119.076 93.9652 119.048 94.1287C119.014 94.2706 118.937 94.3982 118.826 94.4934C118.716 94.5886 118.578 94.6466 118.433 94.6591L118.773 95.6486L118.582 95.6164L118.247 94.666ZM117.595 94.3975L118.286 94.5139C118.415 94.5342 118.547 94.5044 118.655 94.4307C118.763 94.3569 118.838 94.2448 118.866 94.1171C118.881 94.0562 118.883 93.9929 118.872 93.9311C118.861 93.8694 118.837 93.8106 118.803 93.7584C118.768 93.7062 118.723 93.6616 118.671 93.6275C118.618 93.5934 118.559 93.5706 118.497 93.5603L117.788 93.4408L117.595 94.3975Z" fill="white"/>
  <path d="M120.612 95.1915C120.612 95.1915 120.604 95.2408 120.6 95.2655L119.2 95.0297C119.183 95.1883 119.227 95.3474 119.324 95.4745C119.42 95.6016 119.562 95.687 119.719 95.7132C119.826 95.7366 119.938 95.7313 120.043 95.6977C120.148 95.6641 120.242 95.6035 120.316 95.522L120.432 95.624C120.337 95.7233 120.218 95.797 120.087 95.8382C119.956 95.8793 119.816 95.8865 119.682 95.8591C119.575 95.8463 119.473 95.8107 119.382 95.7548C119.291 95.6988 119.212 95.6239 119.153 95.5349C119.093 95.446 119.053 95.3453 119.036 95.2396C119.019 95.1339 119.025 95.0257 119.053 94.9225C119.073 94.8145 119.114 94.7116 119.174 94.6195C119.234 94.5275 119.311 94.4482 119.402 94.3863C119.492 94.3243 119.594 94.2809 119.702 94.2586C119.809 94.2362 119.92 94.2354 120.028 94.256C120.13 94.2744 120.227 94.314 120.314 94.3722C120.4 94.4305 120.472 94.5061 120.527 94.5942C120.583 94.6823 120.619 94.781 120.633 94.8839C120.648 94.9868 120.641 95.0916 120.612 95.1915ZM119.226 94.8755L120.459 95.0833C120.48 95.0059 120.485 94.9249 120.472 94.8456C120.46 94.7663 120.431 94.6906 120.387 94.6233C120.343 94.5561 120.286 94.4988 120.219 94.4554C120.151 94.4119 120.075 94.3832 119.996 94.3711C119.828 94.3423 119.655 94.3783 119.512 94.4719C119.369 94.5655 119.267 94.7097 119.226 94.8755Z" fill="white"/>
  <path d="M120.866 95.2278C120.913 95.0097 121.043 94.8184 121.228 94.6946C121.414 94.5707 121.64 94.524 121.86 94.5645C121.99 94.5855 122.111 94.6438 122.209 94.7323C122.306 94.8208 122.376 94.9356 122.41 95.063L122.268 95.1152C122.237 95.0076 122.176 94.9114 122.091 94.8385C122.007 94.7656 121.902 94.7192 121.792 94.7052C121.614 94.6752 121.432 94.7152 121.284 94.8168C121.135 94.9183 121.032 95.0735 120.996 95.2497C120.976 95.3332 120.973 95.42 120.988 95.5046C121.003 95.5893 121.035 95.6699 121.082 95.7416C121.13 95.8132 121.191 95.8744 121.264 95.9211C121.336 95.9679 121.417 95.9993 121.501 96.0133C121.617 96.0335 121.736 96.0229 121.846 95.9825C121.957 95.9421 122.055 95.8733 122.13 95.7831L122.24 95.8841C122.146 95.993 122.027 96.0757 121.892 96.1241C121.757 96.1725 121.611 96.185 121.47 96.1603C121.367 96.1424 121.27 96.1036 121.182 96.046C121.095 95.9885 121.021 95.9136 120.965 95.8261C120.908 95.7385 120.87 95.6402 120.853 95.5372C120.836 95.4343 120.841 95.3289 120.866 95.2278Z" fill="white"/>
  <path d="M122.581 95.5167C122.63 95.3002 122.761 95.1108 122.945 94.9875C123.13 94.8641 123.355 94.8161 123.574 94.8534C123.679 94.869 123.78 94.9064 123.869 94.9631C123.959 95.0199 124.036 95.0947 124.095 95.1829C124.154 95.271 124.194 95.3705 124.213 95.4751C124.231 95.5796 124.228 95.6869 124.202 95.79C124.153 96.0055 124.024 96.1941 123.84 96.3175C123.657 96.4409 123.434 96.4899 123.215 96.4544C123.11 96.4395 123.008 96.4027 122.918 96.3462C122.827 96.2897 122.75 96.2149 122.69 96.1265C122.63 96.0382 122.589 95.9383 122.571 95.8332C122.552 95.7282 122.555 95.6204 122.581 95.5167ZM124.042 95.763C124.062 95.6794 124.065 95.5926 124.05 95.508C124.035 95.4234 124.003 95.3427 123.956 95.271C123.908 95.1994 123.847 95.1383 123.775 95.0915C123.702 95.0448 123.622 95.0134 123.537 94.9993C123.36 94.9709 123.178 95.0115 123.03 95.1128C122.882 95.2141 122.779 95.3684 122.741 95.5438C122.721 95.6273 122.718 95.7141 122.733 95.7987C122.748 95.8833 122.78 95.964 122.828 96.0357C122.875 96.1073 122.937 96.1684 123.009 96.2152C123.081 96.262 123.162 96.2933 123.247 96.3074C123.424 96.3358 123.605 96.2952 123.753 96.1939C123.901 96.0926 124.005 95.9383 124.042 95.763Z" fill="white"/>
  <path d="M125.416 95.1763L125.391 95.3243C125.318 95.3101 125.242 95.3112 125.169 95.3275C125.097 95.3437 125.028 95.3748 124.967 95.4187C124.907 95.4627 124.856 95.5186 124.819 95.583C124.781 95.6474 124.757 95.7189 124.748 95.793L124.56 96.6428L124.406 96.6168L124.746 95.0888L124.9 95.1148L124.849 95.4169C124.909 95.3255 124.995 95.2539 125.096 95.2111C125.197 95.1683 125.308 95.1562 125.416 95.1763Z" fill="white"/>
  <path d="M127.279 94.8815L126.804 97.0209L126.65 96.9949L126.71 96.6373C126.62 96.7452 126.504 96.8278 126.372 96.8768C126.24 96.9258 126.098 96.9395 125.96 96.9166C125.855 96.9011 125.754 96.8638 125.665 96.807C125.576 96.7503 125.499 96.6754 125.44 96.5872C125.382 96.499 125.342 96.3995 125.324 96.2951C125.307 96.1907 125.311 96.0837 125.337 95.9811C125.385 95.7659 125.513 95.577 125.695 95.4533C125.878 95.3296 126.1 95.2803 126.318 95.3156C126.447 95.3388 126.567 95.3979 126.665 95.486C126.762 95.5742 126.832 95.6879 126.868 95.8142L127.082 94.8482L127.279 94.8815ZM126.817 96.2304C126.837 96.1469 126.84 96.0601 126.825 95.9754C126.81 95.8908 126.778 95.8101 126.731 95.7385C126.683 95.6668 126.622 95.6057 126.549 95.559C126.477 95.5122 126.396 95.4808 126.312 95.4667C126.134 95.4366 125.951 95.4763 125.802 95.5775C125.652 95.6787 125.548 95.8337 125.51 96.0102C125.49 96.0937 125.487 96.1805 125.502 96.2651C125.517 96.3498 125.549 96.4304 125.596 96.5021C125.644 96.5737 125.705 96.6348 125.777 96.6816C125.85 96.7284 125.93 96.7597 126.015 96.7738C126.195 96.8059 126.379 96.7675 126.531 96.6667C126.683 96.5658 126.79 96.4103 126.829 96.2325L126.817 96.2304Z" fill="white"/>
  <g opacity="0.6">
    <path d="M139.697 96.9736L139.222 99.1131L139.031 99.0809L139.261 98.0543L138.028 97.8465L137.798 98.8731L137.632 98.845L138.112 96.7066L138.273 96.7336L138.06 97.6934L139.293 97.9012L139.506 96.9414L139.697 96.9736Z" fill="white"/>
    <path d="M139.778 98.4142C139.828 98.1977 139.958 98.0083 140.143 97.8849C140.327 97.7616 140.552 97.7136 140.771 97.7509C140.876 97.7665 140.977 97.8039 141.067 97.8606C141.156 97.9173 141.233 97.9922 141.292 98.0803C141.352 98.1685 141.392 98.268 141.41 98.3725C141.429 98.4771 141.425 98.5843 141.4 98.6874C141.352 98.9037 141.223 99.0933 141.039 99.2169C140.855 99.3406 140.631 99.3889 140.413 99.3518C140.307 99.337 140.206 99.3001 140.115 99.2437C140.025 99.1872 139.947 99.1124 139.887 99.024C139.827 98.9356 139.787 98.8357 139.768 98.7307C139.749 98.6256 139.753 98.5178 139.778 98.4142ZM141.239 98.6604C141.26 98.5769 141.262 98.4901 141.247 98.4055C141.233 98.3208 141.2 98.2402 141.153 98.1685C141.106 98.0968 141.044 98.0357 140.972 97.989C140.9 97.9422 140.819 97.9108 140.734 97.8968C140.557 97.8684 140.376 97.909 140.228 98.0103C140.08 98.1116 139.976 98.2658 139.938 98.4412C139.918 98.5247 139.915 98.6115 139.93 98.6962C139.945 98.7808 139.977 98.8615 140.025 98.9331C140.072 99.0048 140.134 99.0659 140.206 99.1127C140.278 99.1594 140.359 99.1908 140.444 99.2049C140.623 99.2368 140.807 99.1981 140.957 99.0969C141.108 98.9957 141.214 98.84 141.252 98.6625L141.239 98.6604Z" fill="white"/>
    <path d="M142.105 97.2843L142.26 97.3102L141.763 99.5411L141.609 99.5152L142.105 97.2843Z" fill="white"/>
    <path d="M144.229 97.7374L143.755 99.8769L143.6 99.8509L143.661 99.4933C143.571 99.6017 143.454 99.6846 143.323 99.7336C143.191 99.7827 143.048 99.7961 142.91 99.7726C142.805 99.7571 142.705 99.7197 142.615 99.663C142.526 99.6062 142.449 99.5314 142.391 99.4432C142.332 99.355 142.292 99.2555 142.275 99.1511C142.257 99.0466 142.261 98.9397 142.287 98.837C142.335 98.6218 142.463 98.433 142.645 98.3093C142.828 98.1855 143.051 98.1363 143.268 98.1716C143.398 98.1941 143.518 98.2529 143.616 98.3411C143.713 98.4294 143.783 98.5435 143.818 98.6701L144.032 97.7042L144.229 97.7374ZM143.773 99.0874C143.794 99.0039 143.796 98.9171 143.781 98.8324C143.767 98.7478 143.734 98.6671 143.687 98.5955C143.64 98.5238 143.578 98.4627 143.506 98.4159C143.434 98.3692 143.353 98.3378 143.268 98.3237C143.09 98.2936 142.907 98.3333 142.758 98.4345C142.609 98.5357 142.504 98.6907 142.466 98.8672C142.446 98.9507 142.443 99.0375 142.458 99.1221C142.473 99.2067 142.505 99.2874 142.553 99.3591C142.6 99.4307 142.662 99.4918 142.734 99.5386C142.806 99.5854 142.887 99.6167 142.972 99.6308C143.149 99.6579 143.33 99.6169 143.479 99.5162C143.628 99.4154 143.733 99.2623 143.773 99.0874Z" fill="white"/>
    <path d="M145.117 99.3137C145.164 99.0967 145.293 98.9061 145.477 98.7822C145.661 98.6583 145.886 98.6106 146.104 98.6493C146.241 98.6656 146.37 98.7223 146.475 98.8122C146.58 98.9021 146.655 99.0211 146.692 99.1541L146.55 99.2062C146.516 99.0974 146.451 99.0011 146.363 98.9296C146.274 98.8582 146.166 98.8149 146.053 98.8055C145.875 98.7737 145.691 98.8127 145.541 98.9142C145.392 99.0157 145.287 99.1717 145.251 99.3489C145.231 99.4324 145.228 99.5192 145.243 99.6038C145.258 99.6885 145.29 99.7692 145.337 99.8408C145.385 99.9125 145.447 99.9736 145.519 100.02C145.591 100.067 145.672 100.098 145.756 100.113C145.872 100.131 145.991 100.12 146.101 100.08C146.211 100.04 146.309 99.9716 146.385 99.8824L146.495 99.9833C146.402 100.092 146.282 100.175 146.147 100.223C146.012 100.272 145.867 100.284 145.725 100.26C145.621 100.242 145.521 100.204 145.432 100.145C145.344 100.087 145.268 100.011 145.211 99.9219C145.154 99.8327 145.116 99.7325 145.1 99.6277C145.083 99.523 145.09 99.416 145.117 99.3137Z" fill="white"/>
    <path d="M148.62 99.1115L148.28 100.64L148.12 100.613L148.179 100.261C148.091 100.368 147.975 100.45 147.844 100.499C147.714 100.547 147.573 100.559 147.436 100.535C147.331 100.519 147.231 100.481 147.142 100.424C147.053 100.367 146.977 100.292 146.919 100.204C146.86 100.116 146.821 100.017 146.803 99.913C146.784 99.809 146.788 99.7023 146.813 99.5997C146.861 99.3856 146.988 99.1975 147.169 99.0737C147.35 98.9499 147.571 98.8997 147.788 98.9332C147.921 98.9523 148.047 99.0084 148.15 99.0953C148.253 99.1822 148.33 99.2963 148.371 99.4246L148.429 99.0793L148.62 99.1115ZM148.293 99.8491C148.313 99.7655 148.316 99.6787 148.301 99.5941C148.286 99.5094 148.254 99.4288 148.207 99.3571C148.159 99.2855 148.098 99.2244 148.025 99.1776C147.953 99.1308 147.872 99.0995 147.788 99.0854C147.61 99.0552 147.427 99.0949 147.278 99.1962C147.128 99.2974 147.024 99.4524 146.986 99.6288C146.966 99.7123 146.963 99.7991 146.978 99.8838C146.993 99.9684 147.025 100.049 147.072 100.121C147.12 100.192 147.181 100.253 147.253 100.3C147.326 100.347 147.407 100.378 147.491 100.392C147.669 100.421 147.851 100.381 148 100.28C148.149 100.179 148.254 100.025 148.293 99.8491Z" fill="white"/>
    <path d="M149.276 98.4923L149.43 98.5183L148.897 100.743L148.743 100.717L149.276 98.4923Z" fill="white"/>
    <path d="M149.892 98.5963L150.047 98.6223L149.513 100.847L149.359 100.821L149.892 98.5963Z" fill="white"/>
  </g>
  <path d="M160.287 102.053C160.259 102.217 160.168 102.363 160.033 102.459C159.898 102.555 159.73 102.594 159.566 102.566L158.635 102.409L159.11 100.27L159.973 100.415C160.047 100.427 160.117 100.453 160.18 100.493C160.243 100.533 160.297 100.585 160.338 100.647C160.38 100.709 160.408 100.779 160.421 100.852C160.434 100.925 160.432 101 160.414 101.073C160.394 101.17 160.348 101.261 160.281 101.334C160.214 101.408 160.128 101.462 160.033 101.491C160.128 101.547 160.203 101.631 160.249 101.732C160.294 101.833 160.308 101.945 160.287 102.053ZM159.242 100.425L159.06 101.244L159.757 101.362C159.867 101.377 159.979 101.351 160.071 101.287C160.163 101.224 160.227 101.129 160.252 101.02C160.265 100.968 160.267 100.914 160.258 100.861C160.249 100.808 160.23 100.758 160.2 100.713C160.171 100.668 160.133 100.63 160.088 100.6C160.043 100.571 159.992 100.551 159.939 100.543L159.242 100.425ZM160.121 102.025C160.134 101.971 160.136 101.914 160.127 101.859C160.117 101.804 160.097 101.751 160.066 101.704C160.035 101.657 159.995 101.617 159.948 101.586C159.901 101.556 159.848 101.535 159.792 101.526L159.022 101.396L158.832 102.258L159.597 102.387C159.71 102.397 159.823 102.366 159.915 102.298C160.007 102.231 160.071 102.132 160.096 102.021L160.121 102.025Z" fill="white"/>
  <path d="M161.024 100.472L161.178 100.498L160.681 102.728L160.521 102.701L161.024 100.472Z" fill="white"/>
  <path d="M162.76 101.494L162.42 103.022L162.266 102.996L162.316 102.7C162.245 102.794 162.149 102.866 162.038 102.908C161.928 102.95 161.808 102.96 161.692 102.937C161.611 102.929 161.533 102.903 161.463 102.861C161.393 102.818 161.334 102.761 161.289 102.692C161.245 102.624 161.216 102.546 161.206 102.465C161.195 102.385 161.203 102.302 161.229 102.225L161.439 101.277L161.6 101.304L161.383 102.251C161.362 102.31 161.355 102.373 161.363 102.435C161.37 102.498 161.391 102.558 161.425 102.61C161.459 102.663 161.505 102.707 161.558 102.74C161.612 102.773 161.672 102.793 161.735 102.798C161.814 102.812 161.895 102.809 161.973 102.79C162.05 102.77 162.123 102.735 162.187 102.686C162.251 102.638 162.303 102.576 162.342 102.506C162.381 102.436 162.405 102.358 162.412 102.278L162.592 101.472L162.76 101.494Z" fill="white"/>
  <path d="M164.515 102.588C164.515 102.588 164.507 102.638 164.503 102.662L163.103 102.427C163.086 102.585 163.13 102.744 163.227 102.871C163.323 102.999 163.465 103.084 163.622 103.11C163.729 103.134 163.841 103.128 163.946 103.095C164.051 103.061 164.145 103 164.219 102.919L164.335 103.021C164.239 103.12 164.121 103.193 163.99 103.234C163.859 103.275 163.719 103.283 163.585 103.256C163.478 103.243 163.376 103.207 163.284 103.152C163.193 103.096 163.114 103.021 163.054 102.932C162.994 102.843 162.953 102.742 162.935 102.636C162.918 102.531 162.923 102.422 162.95 102.318C162.992 102.101 163.118 101.909 163.3 101.784C163.483 101.659 163.707 101.612 163.925 101.652C164.029 101.668 164.128 101.706 164.216 101.763C164.304 101.821 164.378 101.896 164.434 101.985C164.49 102.074 164.527 102.174 164.54 102.278C164.554 102.382 164.546 102.488 164.515 102.588ZM163.135 102.273L164.368 102.481C164.389 102.403 164.392 102.322 164.379 102.243C164.366 102.163 164.336 102.088 164.292 102.02C164.248 101.953 164.19 101.896 164.122 101.852C164.055 101.809 163.978 101.78 163.899 101.768C163.731 101.739 163.559 101.776 163.417 101.87C163.275 101.964 163.174 102.108 163.135 102.273Z" fill="white"/>
  <path d="M165.304 102.049L165.079 103.045C165.033 103.316 165.162 103.344 165.487 103.373L165.464 103.509C165.04 103.501 164.853 103.368 164.913 103.017L165.168 102.026L164.829 101.969L164.854 101.821L165.193 101.878L165.259 101.49L165.426 101.474L165.353 101.905L165.81 101.982L165.785 102.13L165.304 102.049Z" fill="white"/>
  <path d="M165.793 102.797C165.841 102.581 165.97 102.391 166.153 102.268C166.337 102.144 166.561 102.096 166.78 102.133C166.885 102.148 166.987 102.185 167.077 102.241C167.168 102.298 167.246 102.372 167.305 102.461C167.365 102.549 167.406 102.649 167.425 102.754C167.443 102.859 167.44 102.967 167.414 103.071C167.365 103.286 167.236 103.475 167.052 103.598C166.869 103.721 166.646 103.77 166.427 103.735C166.322 103.72 166.22 103.683 166.13 103.627C166.039 103.57 165.962 103.495 165.902 103.407C165.842 103.319 165.801 103.219 165.783 103.114C165.764 103.009 165.767 102.901 165.793 102.797ZM167.254 103.044C167.274 102.96 167.277 102.873 167.262 102.789C167.247 102.704 167.215 102.623 167.168 102.552C167.12 102.48 167.059 102.419 166.986 102.372C166.914 102.325 166.833 102.294 166.749 102.28C166.571 102.253 166.39 102.294 166.241 102.394C166.093 102.495 165.987 102.648 165.947 102.823C165.927 102.907 165.924 102.994 165.939 103.078C165.954 103.163 165.986 103.244 166.033 103.315C166.081 103.387 166.142 103.448 166.214 103.495C166.287 103.541 166.368 103.573 166.452 103.587C166.63 103.617 166.813 103.577 166.962 103.476C167.112 103.375 167.216 103.22 167.254 103.044Z" fill="white"/>
  <path d="M167.673 103.114C167.723 102.898 167.853 102.708 168.038 102.585C168.222 102.461 168.447 102.413 168.666 102.451C168.771 102.466 168.872 102.504 168.962 102.56C169.051 102.617 169.128 102.692 169.187 102.78C169.247 102.868 169.287 102.968 169.305 103.072C169.324 103.177 169.32 103.284 169.295 103.387C169.247 103.604 169.118 103.793 168.934 103.917C168.75 104.04 168.526 104.089 168.308 104.052C168.203 104.036 168.102 103.999 168.012 103.942C167.922 103.885 167.844 103.81 167.785 103.722C167.725 103.634 167.684 103.534 167.665 103.43C167.646 103.325 167.649 103.218 167.673 103.114ZM169.141 103.361C169.161 103.278 169.164 103.191 169.149 103.106C169.134 103.022 169.102 102.941 169.054 102.869C169.007 102.798 168.945 102.737 168.873 102.69C168.801 102.643 168.72 102.612 168.635 102.598C168.457 102.568 168.275 102.607 168.125 102.708C167.976 102.81 167.871 102.965 167.833 103.141C167.813 103.225 167.811 103.311 167.825 103.396C167.84 103.481 167.872 103.561 167.92 103.633C167.967 103.705 168.029 103.766 168.101 103.813C168.173 103.859 168.254 103.891 168.339 103.905C168.517 103.933 168.699 103.893 168.848 103.792C168.997 103.691 169.101 103.537 169.141 103.361Z" fill="white"/>
  <path d="M170.101 102.857L169.876 103.853C169.83 104.125 169.965 104.154 170.283 104.182L170.26 104.318C169.843 104.311 169.65 104.177 169.709 103.825L169.928 102.828L169.589 102.771L169.614 102.623L169.953 102.68L170.018 102.292L170.186 102.276L170.113 102.707L170.576 102.785L170.551 102.933L170.101 102.857Z" fill="white"/>
  <path d="M172.139 103.67L171.928 104.624L171.774 104.598L171.985 103.644C172.005 103.585 172.011 103.522 172.003 103.461C171.995 103.399 171.973 103.34 171.939 103.288C171.906 103.236 171.86 103.192 171.807 103.16C171.754 103.128 171.694 103.108 171.633 103.103C171.554 103.089 171.473 103.092 171.395 103.111C171.317 103.13 171.244 103.166 171.18 103.214C171.117 103.263 171.064 103.325 171.025 103.395C170.986 103.465 170.963 103.543 170.955 103.623L170.775 104.429L170.621 104.403L171.102 102.265L171.256 102.291L171.054 103.189C171.126 103.095 171.223 103.023 171.334 102.983C171.446 102.942 171.566 102.934 171.682 102.959C171.763 102.968 171.84 102.994 171.909 103.037C171.978 103.08 172.037 103.137 172.08 103.205C172.124 103.273 172.152 103.351 172.162 103.431C172.173 103.511 172.165 103.593 172.139 103.67Z" fill="white"/>
  <path d="M111.044 118.754L111.2 118.697C111.212 118.837 111.273 118.967 111.373 119.065C111.472 119.164 111.604 119.223 111.743 119.233C112.101 119.293 112.323 119.14 112.377 118.896C112.431 118.651 112.228 118.503 111.925 118.344C111.622 118.185 111.29 118.009 111.375 117.617C111.394 117.534 111.429 117.456 111.479 117.387C111.529 117.318 111.593 117.26 111.666 117.217C111.739 117.173 111.821 117.145 111.905 117.134C111.99 117.123 112.075 117.13 112.157 117.153C112.304 117.172 112.441 117.237 112.549 117.34C112.656 117.442 112.727 117.576 112.753 117.723L112.592 117.772C112.576 117.653 112.52 117.543 112.434 117.46C112.348 117.377 112.237 117.324 112.118 117.311C112.059 117.294 111.997 117.289 111.935 117.297C111.874 117.304 111.815 117.324 111.761 117.354C111.708 117.385 111.661 117.426 111.623 117.475C111.586 117.524 111.558 117.579 111.543 117.639C111.499 117.898 111.683 118.012 111.974 118.168C112.264 118.325 112.635 118.533 112.548 118.899C112.528 118.989 112.49 119.074 112.436 119.148C112.382 119.222 112.314 119.284 112.234 119.331C112.155 119.377 112.067 119.406 111.976 119.417C111.884 119.427 111.792 119.418 111.704 119.391C111.538 119.376 111.382 119.305 111.262 119.189C111.142 119.073 111.065 118.919 111.044 118.754Z" fill="white"/>
  <path d="M114.59 119.047C114.543 119.261 114.416 119.449 114.235 119.573C114.054 119.696 113.832 119.747 113.615 119.713C113.486 119.691 113.365 119.633 113.267 119.544C113.17 119.456 113.1 119.342 113.065 119.215L112.846 120.179L112.655 120.147L113.135 118.009L113.289 118.035L113.229 118.392C113.318 118.282 113.434 118.198 113.566 118.149C113.698 118.1 113.841 118.088 113.98 118.113C114.084 118.13 114.182 118.169 114.27 118.226C114.358 118.283 114.433 118.358 114.49 118.446C114.548 118.534 114.586 118.632 114.603 118.736C114.621 118.839 114.616 118.945 114.59 119.047ZM114.436 119.021C114.456 118.937 114.459 118.85 114.444 118.766C114.429 118.681 114.397 118.6 114.35 118.529C114.302 118.457 114.24 118.396 114.168 118.349C114.096 118.302 114.015 118.271 113.931 118.257C113.753 118.227 113.57 118.266 113.421 118.368C113.271 118.469 113.167 118.624 113.129 118.8C113.109 118.884 113.106 118.971 113.121 119.055C113.136 119.14 113.168 119.221 113.215 119.292C113.263 119.364 113.324 119.425 113.396 119.472C113.468 119.519 113.549 119.55 113.634 119.564C113.812 119.594 113.995 119.555 114.144 119.453C114.294 119.352 114.398 119.197 114.436 119.021Z" fill="white"/>
  <path d="M116.42 119.362C116.42 119.362 116.411 119.411 116.407 119.436L115.007 119.2C114.99 119.358 115.035 119.517 115.131 119.645C115.228 119.772 115.369 119.857 115.526 119.883C115.634 119.907 115.746 119.901 115.85 119.868C115.955 119.834 116.049 119.774 116.123 119.692L116.239 119.794C116.144 119.893 116.025 119.967 115.894 120.008C115.763 120.049 115.624 120.057 115.489 120.029C115.382 120.017 115.279 119.982 115.188 119.927C115.096 119.871 115.017 119.796 114.957 119.707C114.897 119.618 114.858 119.517 114.841 119.41C114.824 119.304 114.831 119.196 114.861 119.093C114.88 118.985 114.921 118.882 114.981 118.79C115.041 118.698 115.119 118.618 115.209 118.556C115.3 118.494 115.402 118.451 115.509 118.429C115.617 118.406 115.727 118.405 115.835 118.426C115.938 118.444 116.035 118.484 116.121 118.542C116.207 118.601 116.28 118.676 116.335 118.764C116.39 118.852 116.426 118.951 116.44 119.054C116.455 119.157 116.448 119.262 116.42 119.362ZM115.032 119.052L116.266 119.26C116.287 119.182 116.291 119.101 116.279 119.022C116.266 118.943 116.237 118.867 116.194 118.8C116.15 118.732 116.092 118.675 116.025 118.632C115.957 118.588 115.882 118.559 115.802 118.547C115.634 118.519 115.461 118.554 115.318 118.648C115.175 118.742 115.073 118.886 115.032 119.052Z" fill="white"/>
  <path d="M118.465 118.888L118.125 120.416L117.971 120.39L118.029 120.045C117.938 120.15 117.821 120.23 117.69 120.277C117.559 120.324 117.418 120.336 117.281 120.312C117.176 120.295 117.076 120.257 116.988 120.2C116.899 120.143 116.822 120.068 116.764 119.981C116.705 119.893 116.666 119.793 116.648 119.689C116.629 119.585 116.633 119.479 116.658 119.376C116.714 119.167 116.847 118.986 117.03 118.87C117.212 118.754 117.432 118.711 117.645 118.75C117.779 118.768 117.905 118.824 118.008 118.911C118.111 118.998 118.188 119.112 118.228 119.241L118.286 118.896L118.465 118.888ZM118.138 119.625C118.158 119.542 118.161 119.455 118.146 119.37C118.131 119.286 118.099 119.205 118.052 119.133C118.004 119.062 117.943 119.001 117.871 118.954C117.798 118.907 117.717 118.876 117.633 118.862C117.456 118.833 117.274 118.874 117.126 118.975C116.978 119.077 116.875 119.231 116.837 119.406C116.817 119.49 116.814 119.577 116.829 119.661C116.844 119.746 116.876 119.826 116.923 119.898C116.971 119.97 117.033 120.031 117.105 120.078C117.177 120.124 117.258 120.156 117.343 120.17C117.517 120.2 117.696 120.162 117.843 120.064C117.99 119.966 118.095 119.816 118.135 119.644L118.138 119.625Z" fill="white"/>
  <path d="M119.572 120.679L118.916 119.788L118.751 120.541L118.597 120.515L119.072 118.375L119.226 118.401L118.936 119.709L119.874 119.144L120.09 119.181L119.096 119.774L119.781 120.714L119.572 120.679Z" fill="white"/>
  <path d="M121.556 120.227C121.556 120.227 121.548 120.276 121.544 120.301L120.144 120.065C120.127 120.223 120.171 120.383 120.268 120.51C120.364 120.637 120.506 120.722 120.663 120.748C120.77 120.772 120.882 120.766 120.987 120.733C121.092 120.699 121.186 120.639 121.259 120.557L121.375 120.659C121.28 120.758 121.162 120.831 121.031 120.872C120.9 120.913 120.76 120.921 120.626 120.894C120.519 120.882 120.416 120.847 120.323 120.792C120.231 120.736 120.152 120.661 120.092 120.572C120.032 120.483 119.991 120.381 119.974 120.275C119.957 120.169 119.962 120.06 119.991 119.957C120.039 119.742 120.168 119.554 120.352 119.434C120.536 119.313 120.759 119.269 120.975 119.311C121.076 119.328 121.172 119.366 121.257 119.423C121.342 119.48 121.414 119.553 121.469 119.64C121.523 119.726 121.56 119.823 121.575 119.924C121.59 120.025 121.583 120.128 121.556 120.227ZM120.175 119.918L121.408 120.126C121.428 120.048 121.432 119.966 121.419 119.887C121.406 119.808 121.376 119.732 121.332 119.665C121.288 119.597 121.23 119.54 121.162 119.497C121.094 119.453 121.018 119.425 120.939 119.412C120.771 119.384 120.599 119.42 120.457 119.514C120.315 119.608 120.214 119.752 120.175 119.918Z" fill="white"/>
  <path d="M122.764 119.612L122.739 119.76C122.665 119.746 122.59 119.747 122.517 119.763C122.444 119.779 122.375 119.81 122.315 119.854C122.255 119.898 122.204 119.954 122.166 120.019C122.129 120.083 122.104 120.155 122.095 120.229L121.908 121.078L121.754 121.053L122.094 119.525L122.266 119.554L122.215 119.856C122.274 119.767 122.357 119.697 122.454 119.654C122.551 119.61 122.659 119.596 122.764 119.612Z" fill="white"/>
  <g opacity="0.6">
    <path d="M136.899 123.598L136.732 123.57L137.154 121.669L136.067 122.849L136.037 122.844L135.532 121.395L135.104 123.295L134.957 123.271L135.431 121.131L135.635 121.165L136.129 122.561L137.173 121.406L137.383 121.441L136.899 123.598Z" fill="white"/>
    <path d="M139.011 122.35L138.671 123.878L138.517 123.852L138.566 123.562C138.494 123.655 138.398 123.726 138.288 123.767C138.178 123.808 138.058 123.817 137.943 123.793C137.862 123.785 137.784 123.759 137.714 123.717C137.644 123.675 137.585 123.617 137.54 123.549C137.496 123.48 137.467 123.403 137.457 123.322C137.446 123.241 137.454 123.159 137.48 123.081L137.685 122.127L137.845 122.154L137.628 123.106C137.608 123.165 137.602 123.228 137.61 123.289C137.618 123.351 137.64 123.41 137.674 123.462C137.708 123.514 137.753 123.558 137.806 123.59C137.859 123.622 137.919 123.642 137.981 123.648C138.06 123.661 138.141 123.658 138.218 123.639C138.296 123.62 138.369 123.584 138.433 123.536C138.497 123.487 138.549 123.425 138.588 123.355C138.627 123.285 138.651 123.207 138.658 123.128L138.838 122.321L139.011 122.35Z" fill="white"/>
    <path d="M139.778 122.65L139.553 123.646C139.508 123.917 139.636 123.945 139.961 123.975L139.938 124.11C139.521 124.104 139.328 123.97 139.387 123.618L139.606 122.621L139.266 122.564L139.294 122.398L139.634 122.455L139.699 122.066L139.867 122.05L139.794 122.482L140.256 122.56L140.231 122.708L139.778 122.65Z" fill="white"/>
    <path d="M141.831 123.643C141.831 123.643 141.823 123.692 141.819 123.717L140.419 123.481C140.402 123.639 140.446 123.799 140.543 123.926C140.639 124.053 140.78 124.138 140.938 124.164C141.045 124.188 141.157 124.182 141.262 124.149C141.367 124.115 141.461 124.055 141.534 123.973L141.657 124.076C141.561 124.174 141.442 124.247 141.311 124.288C141.18 124.329 141.041 124.337 140.907 124.311C140.8 124.299 140.697 124.264 140.605 124.209C140.512 124.153 140.433 124.078 140.373 123.989C140.313 123.9 140.272 123.799 140.255 123.692C140.238 123.586 140.243 123.477 140.272 123.374C140.314 123.156 140.439 122.964 140.622 122.84C140.805 122.715 141.029 122.667 141.247 122.707C141.349 122.725 141.447 122.764 141.534 122.822C141.62 122.88 141.694 122.955 141.749 123.044C141.804 123.132 141.84 123.231 141.854 123.334C141.868 123.438 141.86 123.543 141.831 123.643ZM140.45 123.334L141.683 123.542C141.703 123.464 141.707 123.383 141.694 123.303C141.681 123.224 141.651 123.148 141.607 123.081C141.563 123.014 141.505 122.956 141.437 122.913C141.369 122.869 141.293 122.841 141.214 122.828C141.046 122.8 140.874 122.836 140.732 122.93C140.59 123.024 140.489 123.168 140.45 123.334Z" fill="white"/>
  </g>
  <path d="M122.377 88.9761C122.19 88.9459 121.999 88.9879 121.842 89.0933C121.686 89.1988 121.575 89.36 121.533 89.5441C121.511 89.6331 121.507 89.7257 121.523 89.816C121.539 89.9062 121.574 89.9922 121.625 90.0683C121.676 90.1444 121.742 90.209 121.82 90.2578C121.897 90.3067 121.984 90.3388 122.075 90.352C122.263 90.3823 122.455 90.3396 122.612 90.2329C122.769 90.1261 122.879 89.9633 122.92 89.7779C122.947 89.689 122.953 89.5954 122.939 89.5038C122.925 89.4122 122.891 89.3248 122.839 89.2481C122.787 89.1713 122.718 89.1071 122.638 89.0601C122.558 89.013 122.469 88.9843 122.377 88.9761Z" fill="white"/>
  <path d="M124.898 89.4012C124.711 89.3711 124.52 89.413 124.364 89.5185C124.207 89.6239 124.096 89.7851 124.054 89.9692C124.036 90.0552 124.036 90.1439 124.053 90.2301C124.07 90.3163 124.104 90.3982 124.153 90.4709C124.202 90.5437 124.266 90.6058 124.339 90.6536C124.413 90.7015 124.495 90.734 124.582 90.7494C124.77 90.7796 124.961 90.737 125.119 90.6302C125.276 90.5235 125.386 90.3607 125.427 90.1752C125.449 90.0892 125.452 89.9997 125.436 89.9124C125.421 89.8251 125.387 89.7421 125.337 89.6689C125.287 89.5957 125.222 89.534 125.146 89.4878C125.071 89.4417 124.986 89.4121 124.898 89.4012Z" fill="white"/>
  <path d="M126.559 88.3176L121.336 87.4376C121.194 87.4135 121.048 87.4447 120.929 87.5248C120.809 87.6049 120.725 87.7278 120.693 87.8682L120.029 90.8318C120.013 90.8989 120.011 90.9686 120.024 91.0364C120.036 91.1042 120.063 91.1686 120.101 91.2258C120.14 91.2829 120.19 91.3314 120.248 91.3683C120.307 91.4052 120.372 91.4296 120.44 91.4401L125.687 92.3242C125.829 92.3483 125.975 92.3171 126.095 92.237C126.214 92.1569 126.299 92.034 126.331 91.8936L126.995 88.93C127.011 88.8608 127.012 88.7888 126.999 88.719C126.985 88.6492 126.957 88.5831 126.915 88.5252C126.874 88.4672 126.821 88.4187 126.76 88.3829C126.698 88.3471 126.63 88.3248 126.559 88.3176ZM124.511 91.1749L121.983 90.7489C121.841 90.7262 121.706 90.6745 121.585 90.597C121.464 90.5194 121.36 90.4178 121.28 90.2984C121.2 90.179 121.146 90.0444 121.121 89.9031C121.095 89.7617 121.099 89.6166 121.132 89.4768C121.202 89.1867 121.378 88.9334 121.625 88.7672C121.873 88.601 122.174 88.5341 122.469 88.5797C122.61 88.6023 122.745 88.6538 122.866 88.7309C122.987 88.8079 123.09 88.909 123.17 89.0277C123.25 89.1464 123.304 89.2802 123.33 89.4209C123.356 89.5616 123.353 89.7062 123.321 89.8456C123.261 90.1022 123.116 90.3306 122.908 90.4925L123.759 90.6359C123.636 90.4118 123.599 90.151 123.654 89.9017C123.724 89.6116 123.9 89.3584 124.147 89.1921C124.395 89.0259 124.696 88.959 124.991 89.0046C125.132 89.0273 125.267 89.0787 125.388 89.1558C125.509 89.2329 125.612 89.3339 125.692 89.4526C125.772 89.5713 125.826 89.7051 125.852 89.8459C125.878 89.9866 125.875 90.1311 125.843 90.2705C125.775 90.5609 125.6 90.8151 125.354 90.9826C125.107 91.1502 124.806 91.2188 124.511 91.1749Z" fill="white"/>
  <path d="M168.654 96.3928L166.771 94.5854L166.302 96.694L165.212 95.6353L164.907 95.939L166.065 97.0472L164.514 97.7055L164.666 98.0861L166.153 97.4616L165.684 99.5703L168.203 98.5046L166.823 97.175L168.654 96.3928ZM167.018 95.4195L167.902 96.2661L166.721 96.7646L167.018 95.4195ZM166.253 98.8671L166.548 97.5281L167.427 98.3737L166.253 98.8671Z" fill="white"/>
  <g opacity="0.6">
    <path d="M143.466 95.4209L144.083 95.5248L145.019 91.3199L144.403 91.216L143.466 95.4209Z" fill="white"/>
    <path d="M146.752 91.6118L145.809 95.8157L146.425 95.9195L147.368 91.7157L146.752 91.6118Z" fill="white"/>
  </g>
  <path d="M118.301 111.847L116.792 112.747L115.645 112.553L115.281 114.191L116.427 114.385L117.44 115.716C117.463 115.741 117.493 115.759 117.526 115.767C117.56 115.775 117.595 115.773 117.627 115.762C117.659 115.751 117.687 115.73 117.708 115.703C117.729 115.675 117.741 115.642 117.743 115.608L118.535 112.038C118.549 112.007 118.553 111.972 118.545 111.938C118.537 111.904 118.519 111.874 118.492 111.852C118.465 111.83 118.432 111.818 118.397 111.817C118.363 111.816 118.329 111.826 118.301 111.847Z" fill="white"/>
  <path d="M119.094 112.862C119.31 113.215 119.38 113.638 119.289 114.042C119.199 114.445 118.955 114.798 118.609 115.025C118.362 115.212 118.615 115.59 118.863 115.404C119.31 115.107 119.625 114.649 119.743 114.125C119.861 113.602 119.772 113.053 119.495 112.593C119.341 112.339 118.94 112.608 119.094 112.862Z" fill="white"/>
  <path d="M119.965 111.797C120.412 112.531 120.557 113.41 120.369 114.249C120.182 115.088 119.677 115.821 118.96 116.295C118.712 116.482 118.966 116.861 119.212 116.68C120.031 116.136 120.608 115.296 120.823 114.336C121.038 113.376 120.874 112.37 120.365 111.529C120.211 111.275 119.811 111.543 119.965 111.797Z" fill="white"/>
  <g opacity="0.6">
    <path d="M141.797 118.653C142.004 118.384 142.159 118.079 142.253 117.753C142.35 117.401 141.794 117.314 141.698 117.659C141.645 117.838 141.567 118.009 141.466 118.166L141.797 118.653Z" fill="white"/>
    <path d="M141.153 118.563C140.086 119.512 138.08 118.851 138.369 117.099C138.381 117.025 138.364 116.949 138.32 116.889C138.277 116.828 138.212 116.787 138.138 116.774C138.064 116.762 137.989 116.779 137.928 116.823C137.867 116.866 137.826 116.931 137.814 117.005C137.723 117.455 137.776 117.923 137.965 118.341C138.154 118.76 138.469 119.109 138.866 119.338L138.719 120.024L140.119 120.26L140.273 119.569C140.711 119.501 141.12 119.308 141.451 119.013L141.153 118.563Z" fill="white"/>
    <path d="M139.752 115.619C139.839 115.513 139.953 115.43 140.081 115.379C140.21 115.329 140.349 115.312 140.485 115.331C140.582 115.345 140.674 115.379 140.757 115.431C140.839 115.483 140.91 115.552 140.964 115.632C141.019 115.713 141.055 115.804 141.073 115.9C141.09 115.996 141.087 116.095 141.064 116.189L140.833 117.222L141.168 117.716C141.209 117.632 141.241 117.544 141.263 117.453L141.526 116.267C141.563 116.114 141.567 115.954 141.539 115.799C141.51 115.643 141.45 115.496 141.362 115.365C141.274 115.234 141.16 115.122 141.027 115.038C140.893 114.953 140.744 114.897 140.588 114.873C140.391 114.84 140.188 114.855 139.998 114.917C139.808 114.979 139.635 115.085 139.495 115.227L139.752 115.619Z" fill="white"/>
    <path d="M140.86 118.121L140.595 117.734L139.54 116.167L139.201 115.66L138.644 114.824L138.244 115.093L139.045 116.287L138.873 117.044C138.837 117.197 138.834 117.357 138.862 117.512C138.891 117.667 138.951 117.814 139.039 117.945C139.127 118.076 139.241 118.187 139.374 118.272C139.506 118.357 139.655 118.413 139.811 118.438C140.027 118.475 140.25 118.453 140.455 118.376L141.591 120.064L141.993 119.789L140.877 118.13L140.86 118.121ZM139.904 117.96C139.809 117.944 139.717 117.908 139.636 117.856C139.554 117.804 139.484 117.735 139.43 117.655C139.376 117.574 139.339 117.484 139.321 117.389C139.303 117.294 139.305 117.196 139.326 117.101L139.377 116.799L140.147 117.95C140.066 117.973 139.983 117.984 139.9 117.984L139.904 117.96Z" fill="white"/>
  </g>
  <path d="M155.957 126.809L155.107 125.569L154.872 126.626L154.687 126.595L155.162 124.456L155.328 124.484L155.103 125.479L156.376 124.66L156.598 124.698L155.275 125.553L156.155 126.842L155.957 126.809Z" fill="white"/>
  <path d="M157.93 126.355C157.93 126.355 157.921 126.405 157.917 126.429L156.517 126.193C156.5 126.352 156.545 126.511 156.641 126.638C156.738 126.765 156.879 126.851 157.036 126.877C157.144 126.9 157.256 126.895 157.36 126.861C157.465 126.828 157.559 126.767 157.633 126.686L157.755 126.789C157.659 126.887 157.541 126.959 157.41 127C157.279 127.041 157.14 127.049 157.005 127.024C156.898 127.012 156.795 126.977 156.703 126.921C156.611 126.866 156.532 126.791 156.472 126.701C156.411 126.612 156.371 126.511 156.354 126.405C156.336 126.299 156.342 126.19 156.371 126.086C156.412 125.869 156.538 125.677 156.721 125.552C156.903 125.427 157.128 125.38 157.345 125.42C157.448 125.437 157.546 125.476 157.633 125.534C157.719 125.592 157.792 125.668 157.848 125.756C157.903 125.845 157.939 125.944 157.953 126.047C157.967 126.15 157.959 126.255 157.93 126.355ZM156.549 126.046L157.782 126.254C157.802 126.176 157.806 126.095 157.793 126.016C157.779 125.936 157.75 125.861 157.706 125.793C157.661 125.726 157.603 125.669 157.536 125.625C157.468 125.582 157.392 125.553 157.312 125.541C157.145 125.512 156.972 125.549 156.83 125.643C156.689 125.736 156.588 125.881 156.549 126.046Z" fill="white"/>
  <path d="M159.697 125.835L158.661 127.392C158.596 127.517 158.495 127.62 158.371 127.686C158.246 127.752 158.105 127.779 157.965 127.763L157.988 127.621C158.192 127.655 158.381 127.548 158.531 127.338L158.581 127.264L158.229 125.588L158.396 125.616L158.713 127.084L159.561 125.812L159.697 125.835Z" fill="white"/>
  <path d="M161.421 126.937C161.373 127.152 161.245 127.341 161.063 127.465C160.88 127.589 160.657 127.638 160.44 127.603C160.31 127.58 160.19 127.521 160.092 127.433C159.995 127.345 159.925 127.231 159.89 127.104L159.676 128.07L159.516 128.043L159.99 125.904L160.145 125.929L160.084 126.287C160.173 126.178 160.29 126.094 160.422 126.045C160.554 125.996 160.697 125.983 160.835 126.008C160.936 126.029 161.031 126.07 161.115 126.128C161.199 126.187 161.271 126.261 161.325 126.348C161.38 126.435 161.417 126.532 161.433 126.633C161.449 126.734 161.445 126.838 161.421 126.937ZM161.266 126.911C161.287 126.828 161.289 126.741 161.275 126.656C161.26 126.572 161.228 126.491 161.18 126.419C161.133 126.348 161.071 126.286 160.999 126.24C160.927 126.193 160.846 126.162 160.761 126.147C160.584 126.12 160.402 126.161 160.254 126.262C160.105 126.363 160 126.516 159.959 126.691C159.939 126.774 159.936 126.861 159.951 126.946C159.966 127.03 159.998 127.111 160.046 127.183C160.093 127.254 160.155 127.316 160.227 127.362C160.299 127.409 160.38 127.441 160.465 127.455C160.643 127.485 160.825 127.445 160.975 127.344C161.124 127.243 161.229 127.088 161.266 126.911Z" fill="white"/>
  <path d="M163.478 126.472L163.138 128L162.984 127.974L163.042 127.629C162.951 127.734 162.834 127.814 162.703 127.861C162.572 127.908 162.431 127.92 162.293 127.896C162.189 127.879 162.089 127.842 162 127.785C161.911 127.728 161.835 127.653 161.777 127.565C161.718 127.477 161.679 127.378 161.66 127.274C161.642 127.17 161.646 127.063 161.671 126.96C161.727 126.751 161.859 126.571 162.042 126.455C162.225 126.339 162.445 126.295 162.658 126.334C162.791 126.353 162.917 126.409 163.02 126.496C163.123 126.583 163.2 126.697 163.241 126.825L163.299 126.48L163.478 126.472ZM163.151 127.21C163.171 127.126 163.174 127.039 163.159 126.955C163.144 126.87 163.112 126.789 163.064 126.718C163.017 126.646 162.955 126.585 162.883 126.538C162.811 126.491 162.73 126.46 162.645 126.446C162.468 126.419 162.287 126.46 162.138 126.561C161.989 126.661 161.884 126.814 161.844 126.989C161.823 127.073 161.821 127.16 161.836 127.244C161.85 127.329 161.883 127.41 161.93 127.481C161.977 127.553 162.039 127.614 162.111 127.661C162.183 127.708 162.264 127.739 162.349 127.753C162.524 127.785 162.705 127.748 162.853 127.65C163.002 127.552 163.107 127.401 163.148 127.228L163.151 127.21Z" fill="white"/>
  <path d="M165.604 126.196L165.13 128.336L164.975 128.31L165.036 127.952C164.946 128.061 164.83 128.144 164.698 128.194C164.566 128.243 164.423 128.256 164.285 128.232C164.18 128.216 164.08 128.179 163.99 128.122C163.901 128.065 163.824 127.99 163.766 127.902C163.707 127.814 163.667 127.714 163.65 127.61C163.632 127.506 163.636 127.399 163.662 127.296C163.71 127.082 163.837 126.894 164.018 126.77C164.199 126.646 164.42 126.596 164.637 126.63C164.766 126.653 164.886 126.712 164.984 126.8C165.081 126.888 165.151 127.002 165.187 127.128L165.401 126.162L165.604 126.196ZM165.142 127.545C165.162 127.462 165.165 127.375 165.15 127.29C165.135 127.206 165.103 127.125 165.056 127.053C165.008 126.982 164.947 126.921 164.875 126.874C164.803 126.827 164.722 126.796 164.637 126.782C164.459 126.752 164.276 126.791 164.127 126.892C163.977 126.994 163.873 127.149 163.835 127.325C163.815 127.409 163.812 127.495 163.827 127.58C163.842 127.665 163.874 127.745 163.921 127.817C163.969 127.889 164.031 127.95 164.103 127.997C164.175 128.043 164.256 128.075 164.34 128.089C164.515 128.119 164.695 128.081 164.843 127.984C164.991 127.886 165.097 127.736 165.139 127.564L165.142 127.545Z" fill="white"/>
  <path d="M160.446 118.352C160.352 118.339 160.256 118.362 160.178 118.416C160.1 118.469 160.045 118.55 160.023 118.642C160.012 118.686 160.01 118.732 160.018 118.777C160.026 118.822 160.043 118.864 160.068 118.902C160.094 118.94 160.127 118.972 160.165 118.996C160.203 119.02 160.246 119.036 160.291 119.043C160.385 119.059 160.482 119.038 160.561 118.986C160.641 118.933 160.697 118.853 160.72 118.76C160.73 118.715 160.731 118.669 160.722 118.623C160.714 118.578 160.696 118.535 160.671 118.497C160.645 118.459 160.612 118.426 160.573 118.401C160.534 118.377 160.491 118.36 160.446 118.352Z" fill="white"/>
  <path d="M160.126 119.795C160.033 119.779 159.937 119.799 159.859 119.852C159.78 119.905 159.725 119.986 159.704 120.079C159.693 120.123 159.692 120.169 159.7 120.214C159.707 120.259 159.724 120.302 159.749 120.34C159.774 120.379 159.807 120.411 159.846 120.436C159.884 120.461 159.927 120.478 159.972 120.485C160.066 120.499 160.162 120.478 160.241 120.424C160.319 120.37 160.375 120.288 160.395 120.195C160.406 120.151 160.408 120.105 160.4 120.06C160.392 120.015 160.375 119.973 160.35 119.935C160.324 119.897 160.291 119.865 160.253 119.841C160.214 119.817 160.171 119.801 160.126 119.795Z" fill="white"/>
  <path d="M159.808 121.231C159.713 121.216 159.616 121.238 159.537 121.292C159.457 121.345 159.401 121.427 159.379 121.52C159.369 121.565 159.369 121.611 159.378 121.655C159.387 121.7 159.405 121.742 159.431 121.779C159.456 121.817 159.489 121.849 159.527 121.873C159.566 121.898 159.609 121.914 159.653 121.922C159.746 121.936 159.842 121.915 159.92 121.862C159.998 121.809 160.053 121.729 160.075 121.638C160.086 121.593 160.088 121.547 160.08 121.502C160.072 121.457 160.056 121.414 160.03 121.376C160.005 121.338 159.973 121.305 159.934 121.28C159.896 121.255 159.853 121.239 159.808 121.231Z" fill="white"/>
  <path d="M161.796 118.58C161.702 118.566 161.606 118.588 161.528 118.641C161.449 118.695 161.394 118.777 161.373 118.87C161.362 118.914 161.361 118.96 161.369 119.005C161.376 119.05 161.394 119.092 161.419 119.13C161.444 119.168 161.477 119.2 161.516 119.224C161.554 119.248 161.597 119.264 161.642 119.27C161.736 119.285 161.832 119.264 161.911 119.212C161.99 119.159 162.047 119.079 162.07 118.987C162.08 118.943 162.081 118.896 162.073 118.851C162.064 118.806 162.047 118.763 162.021 118.725C161.995 118.687 161.962 118.654 161.924 118.629C161.885 118.604 161.842 118.587 161.796 118.58Z" fill="white"/>
  <path d="M161.501 120.026C161.408 120.012 161.312 120.033 161.233 120.085C161.153 120.137 161.097 120.217 161.073 120.309C161.063 120.354 161.062 120.4 161.071 120.446C161.079 120.491 161.097 120.534 161.122 120.572C161.148 120.61 161.181 120.643 161.22 120.668C161.258 120.692 161.302 120.709 161.347 120.717C161.441 120.731 161.537 120.709 161.616 120.655C161.694 120.601 161.749 120.52 161.77 120.427C161.781 120.383 161.783 120.337 161.775 120.292C161.767 120.247 161.75 120.205 161.724 120.167C161.699 120.129 161.666 120.097 161.628 120.073C161.589 120.049 161.546 120.033 161.501 120.026Z" fill="white"/>
  <path d="M161.152 121.458C161.058 121.445 160.963 121.468 160.885 121.521C160.807 121.575 160.751 121.656 160.729 121.748C160.719 121.793 160.718 121.839 160.727 121.884C160.736 121.928 160.753 121.971 160.779 122.009C160.805 122.046 160.838 122.078 160.877 122.103C160.916 122.127 160.959 122.143 161.004 122.149C161.097 122.164 161.192 122.142 161.271 122.09C161.349 122.037 161.404 121.957 161.426 121.865C161.437 121.821 161.439 121.774 161.431 121.728C161.423 121.683 161.405 121.639 161.38 121.601C161.354 121.563 161.32 121.53 161.281 121.505C161.242 121.481 161.198 121.465 161.152 121.458Z" fill="white"/>
  <path d="M160.833 122.901C160.74 122.885 160.644 122.905 160.566 122.958C160.487 123.011 160.432 123.092 160.412 123.185C160.401 123.229 160.399 123.275 160.407 123.32C160.414 123.365 160.431 123.408 160.456 123.446C160.482 123.485 160.514 123.517 160.553 123.542C160.591 123.567 160.634 123.584 160.679 123.591C160.774 123.604 160.87 123.582 160.949 123.529C161.028 123.475 161.085 123.395 161.108 123.302C161.117 123.258 161.118 123.212 161.109 123.167C161.1 123.123 161.082 123.08 161.056 123.043C161.031 123.005 160.998 122.974 160.959 122.949C160.921 122.925 160.878 122.908 160.833 122.901Z" fill="white"/>
  <path d="M162.992 119.498C163.085 119.514 163.181 119.493 163.259 119.44C163.338 119.388 163.393 119.307 163.414 119.214C163.425 119.17 163.426 119.124 163.419 119.079C163.411 119.033 163.394 118.99 163.369 118.952C163.344 118.914 163.311 118.882 163.272 118.857C163.234 118.832 163.191 118.815 163.146 118.808C163.052 118.793 162.956 118.815 162.877 118.869C162.799 118.923 162.743 119.005 162.723 119.098C162.712 119.142 162.71 119.188 162.718 119.232C162.726 119.277 162.743 119.32 162.768 119.357C162.794 119.395 162.827 119.427 162.865 119.451C162.904 119.476 162.947 119.492 162.992 119.498Z" fill="white"/>
  <path d="M162.828 120.25C162.734 120.235 162.638 120.256 162.559 120.309C162.48 120.361 162.423 120.441 162.399 120.533C162.389 120.578 162.388 120.624 162.397 120.669C162.405 120.715 162.423 120.758 162.448 120.796C162.474 120.834 162.507 120.866 162.546 120.891C162.584 120.916 162.628 120.933 162.673 120.941C162.767 120.955 162.863 120.933 162.942 120.879C163.021 120.825 163.076 120.743 163.096 120.65C163.107 120.606 163.109 120.56 163.101 120.516C163.093 120.471 163.076 120.428 163.051 120.391C163.025 120.353 162.992 120.321 162.954 120.297C162.916 120.272 162.872 120.257 162.828 120.25Z" fill="white"/>
  <path d="M162.491 121.683C162.397 121.67 162.301 121.693 162.223 121.747C162.145 121.8 162.09 121.881 162.068 121.973C162.057 122.018 162.055 122.063 162.063 122.108C162.071 122.153 162.088 122.196 162.113 122.233C162.139 122.271 162.171 122.303 162.21 122.327C162.248 122.351 162.291 122.367 162.336 122.374C162.43 122.39 162.527 122.37 162.606 122.317C162.686 122.264 162.742 122.184 162.764 122.091C162.775 122.046 162.776 122 162.767 121.954C162.759 121.909 162.741 121.866 162.715 121.828C162.69 121.79 162.657 121.757 162.618 121.732C162.579 121.708 162.536 121.691 162.491 121.683Z" fill="white"/>
  <g opacity="0.1">
    <path d="M111.821 161.979L134.987 165.882L153.026 8.72485L134.379 5.58321C132.716 5.31668 131.015 5.71302 129.64 6.68712L111.821 161.979Z" fill="white"/>
    <path d="M139.149 166.583L144.359 167.461L162.398 10.3039L157.188 9.42603L139.149 166.583Z" fill="white"/>
  </g>
  <path d="M67.1905 120.87L63.841 114.551L66.5381 106.761V102L58.291 106.761V111.523L61.8352 117.666C61.8882 117.765 61.9745 117.841 62.0786 117.881L67.1905 120.87Z" fill="#8BC2FF"/>
  <path opacity="0.3" d="M67.1905 120.87L63.841 114.551L66.5381 106.761V102L58.291 106.761V111.523L61.8352 117.666C61.8882 117.765 61.9745 117.841 62.0786 117.881L67.1905 120.87Z" fill="black"/>
  <path d="M82 67.0348C81.9532 66.1767 81.7048 65.3416 81.2752 64.5973C80.8455 63.853 80.2465 63.2204 79.5268 62.7506L77.5113 61.592C76.745 61.2028 75.8976 61 75.0381 61C74.1787 61 73.3313 61.2028 72.565 61.592L47.4731 76.0512C46.7534 76.5209 46.1545 77.1535 45.7248 77.8979C45.2952 78.6422 45.0468 79.4772 45 80.3354V114.307C45.0468 115.165 45.2952 116 45.7248 116.745C46.1545 117.489 46.7534 118.122 47.4731 118.591L49.4887 119.76C50.255 120.149 51.1024 120.352 51.9618 120.352C52.8213 120.352 53.6687 120.149 54.435 119.76L63.4708 114.551L67.0052 120.685C67.0557 120.775 67.1313 120.849 67.2227 120.897C67.3141 120.945 67.4175 120.966 67.5205 120.957C67.6234 120.947 67.7215 120.908 67.8028 120.845C67.8842 120.781 67.9453 120.695 67.9789 120.597L71.7179 109.799L79.5074 105.301C80.2271 104.831 80.826 104.198 81.2557 103.454C81.6854 102.71 81.9337 101.875 81.9805 101.016L82 67.0348Z" fill="#8BC2FF"/>
  <path opacity="0.3" d="M45 114.307C45.0468 115.165 45.2952 116 45.7248 116.745C46.1545 117.489 46.7534 118.122 47.4731 118.591L49.4887 119.76C50.1872 120.109 50.9515 120.307 51.7317 120.34C52.5119 120.374 53.2904 120.242 54.0163 119.954C52.8479 120.393 51.9618 119.74 51.9618 118.328V84.3663C51.9905 83.5067 52.2386 82.6688 52.6824 81.9321L45.7303 77.9108C45.2835 78.6503 45.0322 79.4913 45 80.3547V114.307Z" fill="black"/>
  <path opacity="0.3" d="M81.9126 66.334C81.6302 65.2824 80.6662 64.9513 79.527 65.6134L54.4352 80.0726C53.702 80.5214 53.1006 81.1564 52.6923 81.9129L45.7305 77.9013C46.1454 77.147 46.7451 76.5104 47.4733 76.0513L72.5555 61.5921C73.3251 61.2081 74.1734 61.0082 75.0335 61.0082C75.8936 61.0082 76.7419 61.2081 77.5115 61.5921L79.527 62.7605C80.1471 63.1623 80.6785 63.6865 81.0887 64.3009C81.499 64.9154 81.7793 65.6072 81.9126 66.334Z" fill="white"/>
  <path d="M65.2331 104.814C64.6772 104.814 64.1392 104.618 63.7142 104.259L57.0736 98.5826C56.8403 98.3831 56.6485 98.1396 56.5092 97.866C56.37 97.5924 56.286 97.2941 56.262 96.988C56.2381 96.682 56.2746 96.3742 56.3696 96.0823C56.4646 95.7903 56.6161 95.52 56.8156 95.2866C57.0151 95.0533 57.2586 94.8615 57.5322 94.7222C57.8057 94.583 58.1041 94.499 58.4101 94.475C58.7162 94.451 59.024 94.4876 59.3159 94.5826C59.6078 94.6776 59.8782 94.8291 60.1115 95.0286L64.3471 98.641L73.6555 77.1518C73.7776 76.8698 73.954 76.6147 74.1747 76.4009C74.3955 76.1872 74.6561 76.019 74.9418 75.906C75.2275 75.793 75.5327 75.7373 75.8399 75.7422C76.1472 75.7472 76.4504 75.8125 76.7323 75.9346C77.0143 76.0568 77.2694 76.2332 77.4832 76.4539C77.6969 76.6746 77.8651 76.9353 77.9781 77.221C78.0911 77.5067 78.1468 77.8119 78.1418 78.1191C78.1369 78.4263 78.0715 78.7295 77.9494 79.0115L67.3752 103.354C67.2307 103.69 67.0091 103.988 66.7283 104.223C66.4476 104.458 66.1155 104.624 65.7589 104.707C65.5881 104.762 65.4118 104.798 65.2331 104.814Z" fill="#FAFAFA"/>
  <defs>
    <radialGradient id="paint0_radial_3746_599" cx="0" cy="0" r="1" gradientUnits="userSpaceOnUse" gradientTransform="translate(141.209 75.4181) rotate(159.32) scale(136.883 184.012)">
      <stop offset="0.433966" stop-color="#3F4D5B"/>
      <stop offset="0.933043" stop-color="#3F4D5B" stop-opacity="0"/>
    </radialGradient>
    <linearGradient id="paint1_linear_3746_599" x1="104.501" y1="106.5" x2="193.501" y2="57" gradientUnits="userSpaceOnUse">
      <stop offset="0.607483" stop-color="#99A8BA"/>
      <stop offset="1" stop-color="#99A8BA" stop-opacity="0"/>
    </linearGradient>
  </defs>
</svg>